<!-- Generated by IcoMoon.io -->
<svg version="1.1" xmlns="http://www.w3.org/2000/svg" width="1024" height="1024" viewBox="0 0 1024 1024">
<title></title>
<g id="icomoon-ignore">
</g>
<path d="M930.909 977.454c0 25.707-20.838 46.545-46.545 46.545s-46.545-20.838-46.545-46.545c0-179.943-145.875-325.818-325.818-325.818s-325.818 145.875-325.818 325.818c0 25.707-20.838 46.545-46.545 46.545s-46.545-20.838-46.545-46.545c0-231.358 187.551-418.909 418.909-418.909s418.909 187.551 418.909 418.909zM512 512c-141.383 0-256-114.616-256-256s114.616-256 256-256c141.383 0 256 114.616 256 256s-114.616 256-256 256zM512 418.909c89.972 0 162.909-72.937 162.909-162.909s-72.937-162.909-162.909-162.909c-89.972 0-162.909 72.937-162.909 162.909s72.937 162.909 162.909 162.909z"></path>
</svg>
