<svg xmlns="http://www.w3.org/2000/svg" width="56" height="56" viewBox="0 0 56 56"><defs><linearGradient id="r8uja" x1="9.99" x2="55.99" y1="23" y2="22.98" gradientUnits="userSpaceOnUse"><stop offset="0" stop-color="#5d91f1"/><stop offset="1" stop-color="#29bfb6"/></linearGradient></defs><g><g opacity=".36"><path fill="#65707d" d="M55.75 19.815a.982.982 0 0 0-.845-.84l-5.306-.695a17.149 17.149 0 0 0-1.536-3.708l3.264-4.25c.27-.35.272-.84.005-1.193a23.21 23.21 0 0 0-4.49-4.494.981.981 0 0 0-1.193.005l-4.245 3.264a17.192 17.192 0 0 0-3.709-1.54L37 1.052a.984.984 0 0 0-.838-.847 22.527 22.527 0 0 0-6.35 0 .983.983 0 0 0-.84.844l-.695 5.31c-1.295.366-2.54.883-3.715 1.54l-4.247-3.266a.981.981 0 0 0-1.192-.005 23.428 23.428 0 0 0-4.49 4.492.984.984 0 0 0 .004 1.193L17.9 14.56a17.06 17.06 0 0 0-1.543 3.722l-5.307.695a.982.982 0 0 0-.845.84 23.22 23.22 0 0 0 0 6.351c.06.44.407.784.845.84l5.307.695a17.078 17.078 0 0 0 1.543 3.722l-3.263 4.248a.983.983 0 0 0-.004 1.193 23.346 23.346 0 0 0 4.491 4.491.983.983 0 0 0 1.191-.004l4.247-3.266a17.165 17.165 0 0 0 3.715 1.54l.695 5.307c.057.441.401.786.84.847 1.083.15 2.12.223 3.168.223 1.053 0 2.093-.074 3.182-.225a.983.983 0 0 0 .838-.847l.695-5.31a17.238 17.238 0 0 0 3.71-1.54l4.244 3.265c.35.267.837.27 1.192.004a23.239 23.239 0 0 0 4.491-4.495.984.984 0 0 0-.005-1.192l-3.264-4.25a17.178 17.178 0 0 0 1.536-3.708l5.306-.696a.982.982 0 0 0 .845-.84c.3-2.165.3-4.185 0-6.355z"/><path fill="url(#r8uja)" d="M55.75 19.815a.982.982 0 0 0-.845-.84l-5.306-.695a17.149 17.149 0 0 0-1.536-3.708l3.264-4.25c.27-.35.272-.84.005-1.193a23.21 23.21 0 0 0-4.49-4.494.981.981 0 0 0-1.193.005l-4.245 3.264a17.192 17.192 0 0 0-3.709-1.54L37 1.052a.984.984 0 0 0-.838-.847 22.527 22.527 0 0 0-6.35 0 .983.983 0 0 0-.84.844l-.695 5.31c-1.295.366-2.54.883-3.715 1.54l-4.247-3.266a.981.981 0 0 0-1.192-.005 23.428 23.428 0 0 0-4.49 4.492.984.984 0 0 0 .004 1.193L17.9 14.56a17.06 17.06 0 0 0-1.543 3.722l-5.307.695a.982.982 0 0 0-.845.84 23.22 23.22 0 0 0 0 6.351c.06.44.407.784.845.84l5.307.695a17.078 17.078 0 0 0 1.543 3.722l-3.263 4.248a.983.983 0 0 0-.004 1.193 23.346 23.346 0 0 0 4.491 4.491.983.983 0 0 0 1.191-.004l4.247-3.266a17.165 17.165 0 0 0 3.715 1.54l.695 5.307c.057.441.401.786.84.847 1.083.15 2.12.223 3.168.223 1.053 0 2.093-.074 3.182-.225a.983.983 0 0 0 .838-.847l.695-5.31a17.238 17.238 0 0 0 3.71-1.54l4.244 3.265c.35.267.837.27 1.192.004a23.239 23.239 0 0 0 4.491-4.495.984.984 0 0 0-.005-1.192l-3.264-4.25a17.178 17.178 0 0 0 1.536-3.708l5.306-.696a.982.982 0 0 0 .845-.84c.3-2.165.3-4.185 0-6.355z"/></g><g><path fill="#65707d" d="M32.114 32.993c0 5.041-4.098 9.142-9.136 9.142-5.038 0-9.136-4.1-9.136-9.142 0-5.041 4.098-9.143 9.136-9.143 5.038 0 9.136 4.102 9.136 9.143zm-1.965 0c0-3.957-3.217-7.175-7.171-7.175-3.955 0-7.17 3.218-7.17 7.175 0 3.956 3.215 7.175 7.17 7.175 3.954 0 7.17-3.22 7.17-7.175zM45.75 36.17a.982.982 0 0 1-.845.84l-5.306.696a17.178 17.178 0 0 1-1.536 3.708l3.264 4.25c.27.35.272.84.005 1.191a23.17 23.17 0 0 1-4.49 4.496.985.985 0 0 1-1.193-.006l-4.245-3.263a17.194 17.194 0 0 1-3.709 1.54L27 54.932a.982.982 0 0 1-.838.847 22.92 22.92 0 0 1-3.182.225c-1.048 0-2.085-.073-3.168-.223a.983.983 0 0 1-.84-.846l-.695-5.309a17.08 17.08 0 0 1-3.716-1.54l-4.246 3.267a.984.984 0 0 1-1.19.005 23.37 23.37 0 0 1-4.492-4.492.983.983 0 0 1 .004-1.192L7.9 41.426a17.095 17.095 0 0 1-1.543-3.722L1.05 37.01a.985.985 0 0 1-.845-.841 23.218 23.218 0 0 1 0-6.352.981.981 0 0 1 .845-.84l5.307-.696a17.047 17.047 0 0 1 1.543-3.72l-3.263-4.248a.983.983 0 0 1-.004-1.193 23.4 23.4 0 0 1 4.49-4.491.981.981 0 0 1 1.192.004l4.246 3.266a17.186 17.186 0 0 1 3.716-1.54l.695-5.308a.983.983 0 0 1 .84-.847c2.172-.3 4.178-.299 6.35.002.437.061.78.406.838.847l.695 5.311c1.291.365 2.534.882 3.71 1.54l4.244-3.264a.986.986 0 0 1 1.192-.006 23.29 23.29 0 0 1 4.491 4.495.985.985 0 0 1-.005 1.193l-3.264 4.25A17.189 17.189 0 0 1 39.6 28.28l5.306.696a.983.983 0 0 1 .845.84c.3 2.17.3 4.19 0 6.355zm-1.856-5.344l-5.206-.682a.984.984 0 0 1-.829-.745 15.226 15.226 0 0 0-1.816-4.39.982.982 0 0 1 .058-1.11l3.203-4.17a21.13 21.13 0 0 0-3.062-3.065l-4.165 3.203a.978.978 0 0 1-1.113.059 15.16 15.16 0 0 0-4.388-1.822.984.984 0 0 1-.744-.829l-.681-5.21a20.226 20.226 0 0 0-4.33-.002l-.681 5.208a.982.982 0 0 1-.745.828A15.224 15.224 0 0 0 15 19.92a.98.98 0 0 1-1.112-.056l-4.165-3.206a21.61 21.61 0 0 0-3.061 3.062l3.2 4.166A.984.984 0 0 1 9.921 25a15.171 15.171 0 0 0-1.825 4.4.984.984 0 0 1-.828.746l-5.205.681a21.209 21.209 0 0 0 0 4.33l5.205.684a.982.982 0 0 1 .828.744 15.172 15.172 0 0 0 1.825 4.4c.213.348.19.79-.059 1.114l-3.2 4.167a21.56 21.56 0 0 0 3.061 3.06l4.165-3.203a.986.986 0 0 1 1.111-.058 15.216 15.216 0 0 0 4.396 1.822.981.981 0 0 1 .745.827l.681 5.209c1.464.154 2.866.152 4.33-.001l.681-5.211a.983.983 0 0 1 .744-.829 15.21 15.21 0 0 0 4.388-1.822.986.986 0 0 1 1.113.059l4.165 3.201a21.117 21.117 0 0 0 3.062-3.063l-3.203-4.17a.986.986 0 0 1-.058-1.113 15.186 15.186 0 0 0 1.816-4.388.983.983 0 0 1 .829-.744l5.206-.683c.154-1.46.154-2.87 0-4.333z"/></g></g></svg>