<svg xmlns="http://www.w3.org/2000/svg" width="63" height="60" viewBox="0 0 63 60"><defs><linearGradient id="ilwua" x1="10" x2="63" y1="25" y2="24.98" gradientUnits="userSpaceOnUse"><stop offset="0" stop-color="#5d91f1"/><stop offset="1" stop-color="#29bfb6"/></linearGradient></defs><g><g opacity=".36"><path fill="#65707d" d="M62.842 12.05c-.033-.053-.09-.085-.131-.133-.073-.082-.133-.176-.23-.233-.018-.012-.04-.009-.057-.019-.016-.008-.022-.026-.039-.033L38.225.087a1.14 1.14 0 0 0-.94-.017L10.654 11.614c-.025.01-.036.037-.06.05-.028.014-.062.011-.09.03-.088.053-.14.14-.209.216-.042.048-.095.083-.128.136a1.03 1.03 0 0 0-.165.537l-.002.006v24.799c0 .422.255.803.652.976l26.5 11.544a1.13 1.13 0 0 0 .94-.015l24.291-11.545c.378-.18.617-.552.617-.96V12.59c0-.194-.06-.378-.158-.54z"/><path fill="url(#ilwua)" d="M62.842 12.05c-.033-.053-.09-.085-.131-.133-.073-.082-.133-.176-.23-.233-.018-.012-.04-.009-.057-.019-.016-.008-.022-.026-.039-.033L38.225.087a1.14 1.14 0 0 0-.94-.017L10.654 11.614c-.025.01-.036.037-.06.05-.028.014-.062.011-.09.03-.088.053-.14.14-.209.216-.042.048-.095.083-.128.136a1.03 1.03 0 0 0-.165.537l-.002.006v24.799c0 .422.255.803.652.976l26.5 11.544a1.13 1.13 0 0 0 .94-.015l24.291-11.545c.378-.18.617-.552.617-.96V12.59c0-.194-.06-.378-.158-.54z"/></g><g><path fill="#65707d" d="M53 22.59V47.39c0 .408-.24.78-.617.96L28.091 59.892a1.133 1.133 0 0 1-.94.015L.652 48.363a1.067 1.067 0 0 1-.65-.974V22.59v-.002l.001-.006c.001-.193.064-.377.165-.537.033-.054.086-.088.128-.135.068-.076.12-.163.21-.218.027-.018.06-.015.09-.03.023-.013.034-.038.058-.05L27.285 10.07a1.14 1.14 0 0 1 .94.016l24.16 11.546c.017.007.023.025.04.034.017.01.038.007.055.017.098.06.158.151.23.234.043.048.1.08.132.134.098.162.158.345.158.54zM17.19 16.79l22.55 10.386 2.015-.957 7.64-3.63-21.683-10.361zM3.802 22.593l23.782 10.36 9.624-4.574L14.54 17.938zM2.208 46.697L26.5 57.28V34.826L2.208 24.243zm48.584.024V24.306L28.708 34.801v22.416zM12.918 33.278c-.19.387-.587.612-.999.612-.16 0-.319-.034-.472-.103l-5.855-2.68a1.056 1.056 0 0 1-.526-1.425c.263-.536.92-.76 1.47-.51l5.856 2.682c.55.252.787.889.526 1.424zm0 4.25a1.11 1.11 0 0 1-.999.61c-.16 0-.319-.03-.472-.1l-5.855-2.681a1.057 1.057 0 0 1-.526-1.425c.263-.534.92-.76 1.47-.509l5.856 2.68c.55.253.787.889.526 1.425z"/></g></g></svg>