<!-- Generated by IcoMoon.io -->
<svg version="1.1" xmlns="http://www.w3.org/2000/svg" width="1024" height="1024" viewBox="0 0 1024 1024">
<title></title>
<g id="icomoon-ignore">
</g>
<path d="M1001.691 341.943l-439.735 440.174c-12.975 12.995-30.911 21.034-50.725 21.034s-37.749-8.039-50.724-21.033l-439.736-440.175c-12.99-13.019-21.022-30.988-21.022-50.834s8.032-37.816 21.024-50.836l-0.001 0.001c12.979-13.017 30.93-21.070 50.761-21.070s37.782 8.054 50.759 21.069l0.002 0.002 388.974 389.632 388.974-389.559c12.975-12.995 30.911-21.034 50.725-21.034s37.749 8.039 50.724 21.033l0.001 0.001c13.007 13.011 21.053 30.983 21.053 50.834s-8.045 37.824-21.053 50.834v0z"></path>
</svg>
