<!-- Generated by IcoMoon.io -->
<svg version="1.1" xmlns="http://www.w3.org/2000/svg" width="1024" height="1024" viewBox="0 0 1024 1024">
<title></title>
<g id="icomoon-ignore">
</g>
<path d="M291.623 8.651l482.595 482.445c5.353 5.345 8.664 12.733 8.664 20.894s-3.311 15.55-8.664 20.893v0l-482.595 482.445c-5.354 5.358-12.752 8.671-20.924 8.671-16.337 0-29.58-13.244-29.58-29.58 0-8.165 3.308-15.557 8.657-20.909v0l461.687-461.506-461.687-461.566c-5.336-5.347-8.635-12.728-8.635-20.879 0-16.325 13.234-29.559 29.559-29.559 8.174 0 15.573 3.317 20.923 8.68l0.001 0.001z"></path>
</svg>
