<!-- Generated by IcoMoon.io -->
<svg version="1.1" xmlns="http://www.w3.org/2000/svg" width="1024" height="1024" viewBox="0 0 1024 1024">
<title></title>
<g id="icomoon-ignore">
</g>
<path d="M273.241 850.008c0 60.966 49.598 110.561 110.561 110.561s110.564-49.598 110.564-110.561-49.6-110.564-110.564-110.564-110.561 49.598-110.561 110.564zM444.803 850.008c0 33.633-27.363 60.995-60.998 60.995-33.633 0-60.995-27.363-60.995-60.995 0-33.635 27.363-60.998 60.995-60.998 33.635-0.003 60.998 27.36 60.998 60.998z"></path>
<path d="M634.744 850.008c0 60.966 49.598 110.561 110.561 110.561s110.561-49.598 110.561-110.561-49.598-110.564-110.561-110.564-110.561 49.598-110.561 110.564zM806.303 850.008c0 33.633-27.363 60.995-60.995 60.995s-60.995-27.363-60.995-60.995c0-33.635 27.363-60.998 60.995-60.998s60.995 27.36 60.995 60.998z"></path>
<path d="M934.376 590.611l88.589-296.846c2.238-7.5 0.802-15.618-3.874-21.893-4.676-6.278-12.044-9.975-19.873-9.975h-787.224l-25.221-103.612c-13.477-55.37-62.691-94.274-119.679-94.608l-42.168-0.245c-0.050 0-0.096 0-0.146 0-13.621 0-24.701 11-24.78 24.639-0.079 13.688 10.951 24.848 24.642 24.927l42.168 0.245c34.193 0.198 63.721 23.544 71.808 56.765l100.886 414.473c13.559 55.704 63.068 94.608 120.398 94.608h455.739c54.361 0 103.188-36.384 118.738-88.478zM815.635 629.523h-455.739c-34.399 0-64.104-23.342-72.237-56.765l-63.601-261.298h741.899l-79.077 264.975c-9.331 31.256-38.627 53.088-71.246 53.088z"></path>
</svg>
