<!-- Generated by IcoMoon.io -->
<svg version="1.1" xmlns="http://www.w3.org/2000/svg" width="1024" height="1024" viewBox="0 0 1024 1024">
<title></title>
<g id="icomoon-ignore">
</g>
<path d="M960 256c0-35.344-28.656-64-64-64h-32v-128c0-35.344-28.656-64-64-64s-64 28.656-64 64v128h-128v-128c0-35.344-28.656-64-64-64s-64 28.656-64 64v128h-32c-35.344 0-64 28.656-64 64 0 30.946 21.974 56.758 51.168 62.704l80.91 215.766c9.36 24.984 33.25 41.53 59.922 41.53h32v192c0 70.578-57.422 128-128 128s-128-57.422-128-128c0-123.516-100.484-224-224-224-35.344 0-64 28.656-64 64s28.656 64 64 64c52.938 0 96 43.062 96 96 0 141.156 114.844 256 256 256s256-114.844 256-256v-192h32c26.672 0 50.562-16.546 59.922-41.532l80.91-215.766c29.194-5.944 51.168-31.756 51.168-62.702z"></path>
</svg>
