<svg xmlns="http://www.w3.org/2000/svg" width="58" height="56" viewBox="0 0 58 56"><defs><linearGradient id="bkiea" x1="9.99" x2="57.99" y1="22.99" y2="23.11" gradientUnits="userSpaceOnUse"><stop offset="0" stop-color="#5d91f1"/><stop offset="1" stop-color="#29bfb6"/></linearGradient></defs><g><g opacity=".36"><path fill="#65707d" d="M57 26.047h-3.038v-7.251a1 1 0 0 0-.998-1.002h-.974l-1.813-5.873h2.787a1 1 0 0 0 .998-1.003 1 1 0 0 0-.998-1.002h-3.406L46.749.82a1 1 0 0 0-1.247-.662l-31.62 9.788c-2.165.157-3.892 2.288-3.892 4.91v26.97c0 2.294 1.858 4.16 4.141 4.16h38.833a1 1 0 0 0 .998-1.002v-7.027H57a1 1 0 0 0 .998-1.002V27.05A1 1 0 0 0 57 26.047z"/><path fill="url(#bkiea)" d="M57 26.047h-3.038v-7.251a1 1 0 0 0-.998-1.002h-.974l-1.813-5.873h2.787a1 1 0 0 0 .998-1.003 1 1 0 0 0-.998-1.002h-3.406L46.749.82a1 1 0 0 0-1.247-.662l-31.62 9.788c-2.165.157-3.892 2.288-3.892 4.91v26.97c0 2.294 1.858 4.16 4.141 4.16h38.833a1 1 0 0 0 .998-1.002v-7.027H57a1 1 0 0 0 .998-1.002V27.05A1 1 0 0 0 57 26.047z"/></g><g><path fill="#65707d" d="M47.998 37.049v9.906A1 1 0 0 1 47 47.958h-3.038v7.026a1 1 0 0 1-.998 1.003H4.131c-2.283 0-4.14-1.867-4.14-4.16v-26.97c0-2.623 1.726-4.753 3.89-4.911l31.62-9.789a1.001 1.001 0 0 1 1.248.662l2.809 9.097h3.406a1 1 0 0 1 .998 1.002 1 1 0 0 1-.998 1.003h-2.787l1.813 5.873h.974a1 1 0 0 1 .998 1.002v7.251H47a1 1 0 0 1 .998 1.002zM5.422 21.567l2.217 6.227H39.9l-4.763-15.425zm-3.435 3.29c0 1.592.982 2.937 2.144 2.937H5.52l-2.035-5.716c-.856.387-1.497 1.496-1.497 2.778zm39.98 23.1h-3.863c-3.27 0-5.93-2.671-5.93-5.954 0-3.284 2.66-5.956 5.93-5.956h3.862v-6.249H4.131c-.788 0-1.517-.278-2.144-.735v22.763c0 1.189.96 2.156 2.144 2.156h37.835zm4.035-9.905h-7.898c-2.17 0-3.934 1.773-3.934 3.95 0 2.18 1.765 3.951 3.934 3.951h7.898zm-6.52 3.236c.18.2.3.461.3.722 0 .26-.12.52-.3.701-.179.18-.438.301-.697.301-.281 0-.54-.12-.72-.3a1.005 1.005 0 0 1-.278-.702c0-.26.099-.521.278-.722a1.04 1.04 0 0 1 1.418 0z"/></g></g></svg>