<!-- Generated by IcoMoon.io -->
<svg version="1.1" xmlns="http://www.w3.org/2000/svg" width="1024" height="1024" viewBox="0 0 1024 1024">
<title></title>
<g id="icomoon-ignore">
</g>
<path d="M356.864 26.027l430.251 427.605c15.249 15.113 24.689 36.065 24.689 59.221s-9.441 44.108-24.683 59.215l-0.006 0.006-430.251 427.691c-15.266 15.159-36.299 24.528-59.52 24.528s-44.254-9.369-59.525-24.533l0.005 0.005c-15.186-15.142-24.582-36.084-24.582-59.221s9.396-44.079 24.58-59.219l0.002-0.002 370.859-368.469-370.859-368.469c-15.161-15.138-24.539-36.063-24.539-59.179s9.379-44.041 24.538-59.178l0.001-0.001c15.266-15.159 36.299-24.528 59.52-24.528s44.254 9.369 59.525 24.533l-0.005-0.005z"></path>
</svg>
