<!-- Generated by IcoMoon.io -->
<svg version="1.1" xmlns="http://www.w3.org/2000/svg" width="1024" height="1024" viewBox="0 0 1024 1024">
<title></title>
<g id="icomoon-ignore">
</g>
<path d="M732.552 9.096l-482.424 482.274c-5.351 5.343-8.661 12.728-8.661 20.887s3.31 15.544 8.661 20.886v0l482.424 482.274c5.352 5.356 12.747 8.668 20.917 8.668 16.331 0 29.57-13.239 29.57-29.57 0-8.162-3.307-15.551-8.654-20.902v0l-461.523-461.342 461.523-461.402c5.334-5.345 8.632-12.723 8.632-20.872 0-16.319-13.229-29.549-29.549-29.549-8.171 0-15.567 3.316-20.916 8.677l-0.001 0.001z"></path>
</svg>
