<!-- Generated by IcoMoon.io -->
<svg version="1.1" xmlns="http://www.w3.org/2000/svg" width="819" height="1024" viewBox="0 0 819 1024">
<title></title>
<g id="icomoon-ignore">
</g>
<path fill="#000" d="M602.371 1012.258c-3.175-2.958-313.822-300.419-181.703-779.469 0.899-3.276-0.99-6.679-4.267-7.6v0c-5.279-1.49-10.751 1.615-12.186 6.907-132.267 486.617 183.933 788.913 187.188 791.904l10.968-11.742z"></path>
<path fill="#000" d="M261.982 736.733c42.542 132.256 166.639 100.557 166.639 100.557-35.328-129.514-166.639-100.557-166.639-100.557z"></path>
<path fill="#000" d="M373.381 681.529c-157.617 17.214-160.336-126.782-160.336-126.782 151.29-2.753 160.336 126.782 160.336 126.782z"></path>
<path fill="#000" d="M212.351 351.142c16.554 181.749 140.971 162.508 140.971 162.508 10.16-169.518-140.971-162.508-140.971-162.508z"></path>
<path fill="#000" d="M295.944 90.579c-82.432 174.786 57.868 236.35 57.868 236.35 64.217-153.918-57.868-236.35-57.868-236.35z"></path>
<path fill="#000" d="M473.346 0c-135.828 73.353-55.274 208.76-55.274 208.76 145.851-125.417 55.274-208.76 55.274-208.76z"></path>
<path fill="#000" d="M603.121 653.449c-150.801 34.156-123.779 164.625-123.779 164.625 160.051-30.174 123.779-164.647 123.779-164.625z"></path>
<path fill="#000" d="M568.544 480.915c-145.806 43.463-135.85 178.415-135.85 178.415 144.907 3.629 135.85-178.415 135.85-178.415z"></path>
<path fill="#000" d="M562.207 339.65c-152.143 6.315-148.525 162.099-148.525 162.099 97.826 16.293 148.525-162.099 148.525-162.099z"></path>
<path fill="#000" d="M562.207 181.135c-138.558 22.653-134.019 144.122-134.019 144.122 132.232-8.897 134.019-144.122 134.019-144.122z"></path>
</svg>
