<!-- Generated by IcoMoon.io -->
<svg version="1.1" xmlns="http://www.w3.org/2000/svg" width="1024" height="1024" viewBox="0 0 1024 1024">
<title></title>
<g id="icomoon-ignore">
</g>
<path d="M896.024 831.078c7.677 7.738 12.422 18.396 12.422 30.161 0 11.348-4.414 21.665-11.618 29.328l0.020-0.023-11.086 11.978c-52.708 56.924-112.443 121.477-208.961 121.477h-0.045c-110.191 0-244.025-83.803-421.2-263.766-175.903-178.625-256.851-312.951-254.755-422.628 1.784-91.61 60.895-147.196 113.001-196.202 7.339-6.892 14.543-13.695 21.503-20.455 7.773-7.633 18.438-12.345 30.202-12.345 12.064 0 22.971 4.955 30.797 12.941l0.007 0.007 210.656 213.891c8.030 8.075 12.402 18.893 12.335 30.358-0.057 11.897-4.982 22.633-12.884 30.327l-0.009 0.009-64.441 62.836c0.045 2.498 3.658 24.826 36.939 70.084 55.63 75.549 144.698 149.739 179.807 149.717 5.599-3.056 65.334-61.229 65.334-61.229 17.421-16.172 44.611-15.213 60.448 0.759zM864.618 860.655l-211.37-211.459c-0.29 1.517-59.044 58.731-62.969 62.389-1.561 1.45-6.669 5.019-8.61 5.978-6.471 3.198-14.090 5.069-22.144 5.069-0.268 0-0.536-0.002-0.805-0.006h0.040c-74.256 0.045-216.21-146.884-250.36-225.913-13.049-30.18-12.268-53.221 2.231-68.479l64.999-63.393-210.789-212.619c-5.8 7.004-13.25 14.030-20.789 21.102-48.069 45.192-97.788 91.899-99.194 165.085-1.874 95.848 77.334 223.772 242.129 391.177 166.022 168.631 293.544 250.584 389.817 250.584 77.245 0.045 125.492-52.151 176.573-107.335zM749.431 272.786c-54.47-54.203-127.723-83.736-204.589-80.123-12.112-0.223-22.306-9.146-22.729-21.191-0.007-0.209-0.011-0.456-0.011-0.702 0-11.896 9.453-21.583 21.256-21.96l0.035-0.001c90.003-3.279 173.985 30.091 237.155 92.97 63.126 62.902 96.294 146.772 93.35 236.174-0.408 11.801-10.073 21.213-21.937 21.213-0.012 0-0.025 0-0.037 0h-0.757c-11.828-0.391-21.268-10.073-21.268-21.96 0-0.24 0.004-0.478 0.011-0.715l-0.001 0.035c2.543-77.156-26.053-149.493-80.479-203.742zM1023.123 477.731c-0.299 11.902-10.019 21.436-21.965 21.436-0.018 0-0.036 0-0.054 0h-0.466c-11.941-0.235-21.53-9.971-21.53-21.945 0-0.15 0.001-0.301 0.004-0.45v0.023c2.566-117.016-41.534-226.738-124.198-309.047-82.665-82.375-193.391-127.433-310.341-123.685-10.773-0.089-22.194-9.369-22.485-21.458-0.003-0.127-0.004-0.277-0.004-0.428 0-11.987 9.599-21.731 21.53-21.967h0.021c129.597-3.859 251.163 45.682 342.394 136.512 91.231 90.874 139.924 211.972 137.091 341.011zM542.656 297.434c3.438-0.246 7.45-0.386 11.494-0.386 47.16 0 89.875 19.038 120.877 49.846l-0.009-0.008c30.908 30.806 50.030 73.42 50.030 120.498 0 3.986-0.137 7.94-0.406 11.858l0.030-0.529c-0.828 11.467-10.334 20.455-21.94 20.455-0.003 0-0.006 0-0.010 0v0l-1.472-0.023c-11.515-0.761-20.566-10.286-20.566-21.927 0-0.494 0.016-0.985 0.048-1.471l-0.003 0.067c0.181-2.536 0.285-5.496 0.285-8.479 0-34.953-14.194-66.59-37.131-89.463l-0.003-0.003c-25.785-25.719-61.341-38.589-98.324-36.648-12.223 1.539-22.618-8.41-23.422-20.432-0.029-0.421-0.045-0.912-0.045-1.407 0-11.645 9.049-21.175 20.5-21.943l0.067-0.004z"></path>
</svg>
