<!-- Generated by IcoMoon.io -->
<svg version="1.1" xmlns="http://www.w3.org/2000/svg" width="1024" height="1024" viewBox="0 0 1024 1024">
<title></title>
<g id="icomoon-ignore">
</g>
<path d="M535.868 255.824l-152.327 308.726h136.494l-113.204 236.854 336.637-302.944h-196.691l123.635-242.636z"></path>
<path d="M552.53 40.57l-3.914 106.222c203.066 0 368.252 165.186 368.252 368.219s-165.186 368.237-368.252 368.237c-203.033 0-368.219-165.186-368.219-368.237 0-31.951 4.314-62.896 12.030-92.481l110.694 41.234-65.373-252.621-237.747 139.675 97.866 36.471c-10.864 39.732-16.758 81.524-16.758 124.705 0 260.369 211.054 471.438 471.422 471.438s471.469-211.054 471.469-471.422c0-260.369-211.085-471.438-471.469-471.438z"></path>
</svg>
