<svg xmlns="http://www.w3.org/2000/svg" width="196" height="40" viewBox="0 0 196 40"><defs><linearGradient id="hxmka" x1="20" x2="90" y1="40" y2="0" gradientUnits="userSpaceOnUse"><stop offset="0" stop-color="#5d91f1"/><stop offset="1" stop-color="#29bfb6"/></linearGradient></defs><g><g><path fill="#64707e" d="M127.8 29.622l-8.68-20.815h2.08l7.68 18.814 7.72-18.814h1.96l-8.68 20.815zm22.068.4c-1.467 0-2.827-.287-4.08-.86a10.072 10.072 0 0 1-3.26-2.362c-.92-1-1.64-2.155-2.16-3.462-.52-1.307-.78-2.708-.78-4.203 0-1.468.26-2.848.78-4.144a10.903 10.903 0 0 1 2.14-3.4 9.934 9.934 0 0 1 3.22-2.303c1.24-.56 2.58-.84 4.02-.84 1.466 0 2.826.287 4.08.86a10.145 10.145 0 0 1 3.24 2.322 10.628 10.628 0 0 1 2.12 3.402c.506 1.295.76 2.662.76 4.103v.5c0 .2-.014.327-.04.38h-18.24c.08 1.201.36 2.316.84 3.342a9.482 9.482 0 0 0 1.82 2.663 8.187 8.187 0 0 0 2.54 1.76c.96.427 1.986.641 3.08.641.72 0 1.426-.1 2.12-.3.693-.2 1.34-.473 1.94-.82a7.037 7.037 0 0 0 1.6-1.261 5.911 5.911 0 0 0 1.1-1.621l1.76.48a6.645 6.645 0 0 1-1.3 2.06 8.827 8.827 0 0 1-2 1.622c-.76.454-1.594.807-2.5 1.06-.907.254-1.84.38-2.8.38zm8.16-11.608c-.08-1.227-.354-2.348-.82-3.362a8.978 8.978 0 0 0-1.8-2.622 8.08 8.08 0 0 0-2.54-1.72 7.69 7.69 0 0 0-3.08-.622c-1.094 0-2.12.207-3.08.621a8.073 8.073 0 0 0-2.54 1.721c-.734.734-1.32 1.615-1.76 2.642a10.14 10.14 0 0 0-.78 3.342zm22.868 11.208h-2V18.013c0-2.694-.38-4.656-1.14-5.883-.76-1.227-1.967-1.842-3.62-1.842-.88 0-1.754.16-2.62.481a8.868 8.868 0 0 0-2.42 1.361 9.893 9.893 0 0 0-1.96 2.062 8.477 8.477 0 0 0-1.24 2.54v12.89h-2V8.807h1.88v4.964a9.928 9.928 0 0 1 3.7-3.863c.786-.466 1.62-.827 2.5-1.08a9.796 9.796 0 0 1 2.72-.38c2.266 0 3.866.794 4.8 2.38.933 1.589 1.4 3.864 1.4 6.826zm14.343-1a12.32 12.32 0 0 0-.54.3 5.497 5.497 0 0 1-.96.42c-.386.133-.82.254-1.3.36-.48.106-1 .16-1.56.16s-1.086-.08-1.58-.24c-.493-.16-.926-.4-1.3-.72a3.418 3.418 0 0 1-.88-1.161c-.213-.454-.32-.987-.32-1.602V10.45h-2.92V8.807h2.92V1.682h2v7.125h4.84v1.642h-4.84v15.21c0 .775.267 1.355.8 1.741a2.99 2.99 0 0 0 1.8.581c.827 0 1.54-.14 2.14-.42.6-.28.967-.46 1.1-.54z"/></g><g><path fill="#fff" d="M55.059 12.992c.8 0 1.533.173 2.2.52a5.693 5.693 0 0 1 1.74 1.4 6.369 6.369 0 0 1 1.14 2.043c.266.773.4 1.587.4 2.44 0 .855-.14 1.655-.42 2.402a6.06 6.06 0 0 1-1.18 1.961 5.645 5.645 0 0 1-1.84 1.341 5.535 5.535 0 0 1-2.36.502 5.012 5.012 0 0 1-1.56-.261 5.799 5.799 0 0 1-1.48-.721 5.933 5.933 0 0 1-1.22-1.1 4.528 4.528 0 0 1-.82-1.441v-5.004a7.832 7.832 0 0 1 2.18-2.902c.946-.786 2.02-1.18 3.22-1.18zM90 39.999c-7.532 0-14.09-4.165-17.5-10.317-3.411 6.152-9.968 10.317-17.5 10.317s-14.09-4.165-17.5-10.317c-3.411 6.152-9.968 10.317-17.5 10.317-11.046 0-20-8.954-20-20S8.954 0 20 0c7.532 0 14.089 4.166 17.5 10.317a20.096 20.096 0 0 1 6.799-7.202v26.648h4.68V26.12a7.882 7.882 0 0 0 2.96 2.962c1.253.72 2.68 1.081 4.28 1.081 1.386 0 2.68-.28 3.88-.84a9.692 9.692 0 0 0 3.12-2.302c.88-.974 1.566-2.115 2.06-3.423.493-1.307.74-2.722.74-4.243 0-1.467-.22-2.867-.66-4.202-.44-1.335-1.067-2.495-1.88-3.482a9.357 9.357 0 0 0-2.9-2.362c-1.12-.587-2.36-.88-3.72-.88-1.627 0-3.047.354-4.26 1.06-1.214.708-2.194 1.701-2.94 2.982V.724c1.7-.47 3.49-.725 5.34-.725 7.533 0 14.09 4.166 17.5 10.317C75.912 4.165 82.469 0 90 0c11.046 0 20 8.954 20 20s-8.954 20-20 20zM30.539 25.2c-.454-.026-.78-.16-.98-.4-.2-.24-.3-.64-.3-1.202v-6.524c0-2.802-.834-4.943-2.5-6.424-1.667-1.482-4.007-2.222-7.02-2.222-3.12 0-6.027.895-8.72 2.682l1.64 3.403c1.12-.775 2.213-1.362 3.28-1.762a9.258 9.258 0 0 1 3.28-.6c1.546 0 2.713.374 3.5 1.12.786.748 1.18 1.815 1.18 3.202v1.202a11.13 11.13 0 0 0-2.38-.68c-.894-.161-1.807-.241-2.74-.241-1.307 0-2.507.167-3.6.5-1.094.334-2.034.795-2.82 1.381-.787.588-1.4 1.301-1.84 2.142-.44.84-.66 1.755-.66 2.741 0 .961.18 1.841.54 2.642.36.8.86 1.501 1.5 2.102.64.6 1.4 1.068 2.28 1.4.88.334 1.826.501 2.84.501 1.52 0 2.946-.32 4.28-.96 1.333-.64 2.466-1.575 3.4-2.803l.12 1.162c.133.746.473 1.347 1.02 1.8.546.454 1.326.681 2.34.681.666 0 1.453-.094 2.36-.28zm66.34-15.29c-1.614-.988-3.567-1.482-5.86-1.482-1.707 0-3.24.294-4.6.88-1.36.588-2.52 1.375-3.48 2.363a10.128 10.128 0 0 0-2.2 3.442 11.413 11.413 0 0 0-.76 4.162c0 1.442.26 2.822.78 4.144a10.58 10.58 0 0 0 2.22 3.482c.96 1.001 2.12 1.795 3.48 2.382 1.36.586 2.893.88 4.6.88 2.32 0 4.306-.507 5.96-1.521 1.653-1.014 2.84-2.322 3.56-3.922l-5.24-1.601c-.32.693-.887 1.28-1.7 1.761-.814.48-1.7.72-2.66.72a5.014 5.014 0 0 1-2.12-.46 5.185 5.185 0 0 1-1.74-1.3 6.446 6.446 0 0 1-1.18-2.003c-.294-.773-.44-1.627-.44-2.562 0-.933.14-1.787.42-2.562.28-.773.666-1.433 1.16-1.98a5.318 5.318 0 0 1 1.74-1.282 5.118 5.118 0 0 1 2.16-.46c.906 0 1.733.207 2.48.62a4.717 4.717 0 0 1 1.8 1.782l5.24-1.601c-.8-1.602-2.007-2.895-3.62-3.883zm-75.76 15.85c-.814.32-1.674.48-2.58.48-1.014 0-1.867-.3-2.56-.9-.694-.6-1.04-1.355-1.04-2.261 0-.961.44-1.755 1.32-2.383.88-.627 2.013-.94 3.4-.94.693 0 1.413.074 2.16.22.746.147 1.44.34 2.08.58v2.402c0 .56-.294 1.068-.88 1.521-.454.535-1.087.96-1.9 1.281z"/><path fill="url(#hxmka)" d="M55.059 12.992c.8 0 1.533.173 2.2.52a5.693 5.693 0 0 1 1.74 1.4 6.369 6.369 0 0 1 1.14 2.043c.266.773.4 1.587.4 2.44 0 .855-.14 1.655-.42 2.402a6.06 6.06 0 0 1-1.18 1.961 5.645 5.645 0 0 1-1.84 1.341 5.535 5.535 0 0 1-2.36.502 5.012 5.012 0 0 1-1.56-.261 5.799 5.799 0 0 1-1.48-.721 5.933 5.933 0 0 1-1.22-1.1 4.528 4.528 0 0 1-.82-1.441v-5.004a7.832 7.832 0 0 1 2.18-2.902c.946-.786 2.02-1.18 3.22-1.18zM90 39.999c-7.532 0-14.09-4.165-17.5-10.317-3.411 6.152-9.968 10.317-17.5 10.317s-14.09-4.165-17.5-10.317c-3.411 6.152-9.968 10.317-17.5 10.317-11.046 0-20-8.954-20-20S8.954 0 20 0c7.532 0 14.089 4.166 17.5 10.317a20.096 20.096 0 0 1 6.799-7.202v26.648h4.68V26.12a7.882 7.882 0 0 0 2.96 2.962c1.253.72 2.68 1.081 4.28 1.081 1.386 0 2.68-.28 3.88-.84a9.692 9.692 0 0 0 3.12-2.302c.88-.974 1.566-2.115 2.06-3.423.493-1.307.74-2.722.74-4.243 0-1.467-.22-2.867-.66-4.202-.44-1.335-1.067-2.495-1.88-3.482a9.357 9.357 0 0 0-2.9-2.362c-1.12-.587-2.36-.88-3.72-.88-1.627 0-3.047.354-4.26 1.06-1.214.708-2.194 1.701-2.94 2.982V.724c1.7-.47 3.49-.725 5.34-.725 7.533 0 14.09 4.166 17.5 10.317C75.912 4.165 82.469 0 90 0c11.046 0 20 8.954 20 20s-8.954 20-20 20zM30.539 25.2c-.454-.026-.78-.16-.98-.4-.2-.24-.3-.64-.3-1.202v-6.524c0-2.802-.834-4.943-2.5-6.424-1.667-1.482-4.007-2.222-7.02-2.222-3.12 0-6.027.895-8.72 2.682l1.64 3.403c1.12-.775 2.213-1.362 3.28-1.762a9.258 9.258 0 0 1 3.28-.6c1.546 0 2.713.374 3.5 1.12.786.748 1.18 1.815 1.18 3.202v1.202a11.13 11.13 0 0 0-2.38-.68c-.894-.161-1.807-.241-2.74-.241-1.307 0-2.507.167-3.6.5-1.094.334-2.034.795-2.82 1.381-.787.588-1.4 1.301-1.84 2.142-.44.84-.66 1.755-.66 2.741 0 .961.18 1.841.54 2.642.36.8.86 1.501 1.5 2.102.64.6 1.4 1.068 2.28 1.4.88.334 1.826.501 2.84.501 1.52 0 2.946-.32 4.28-.96 1.333-.64 2.466-1.575 3.4-2.803l.12 1.162c.133.746.473 1.347 1.02 1.8.546.454 1.326.681 2.34.681.666 0 1.453-.094 2.36-.28zm66.34-15.29c-1.614-.988-3.567-1.482-5.86-1.482-1.707 0-3.24.294-4.6.88-1.36.588-2.52 1.375-3.48 2.363a10.128 10.128 0 0 0-2.2 3.442 11.413 11.413 0 0 0-.76 4.162c0 1.442.26 2.822.78 4.144a10.58 10.58 0 0 0 2.22 3.482c.96 1.001 2.12 1.795 3.48 2.382 1.36.586 2.893.88 4.6.88 2.32 0 4.306-.507 5.96-1.521 1.653-1.014 2.84-2.322 3.56-3.922l-5.24-1.601c-.32.693-.887 1.28-1.7 1.761-.814.48-1.7.72-2.66.72a5.014 5.014 0 0 1-2.12-.46 5.185 5.185 0 0 1-1.74-1.3 6.446 6.446 0 0 1-1.18-2.003c-.294-.773-.44-1.627-.44-2.562 0-.933.14-1.787.42-2.562.28-.773.666-1.433 1.16-1.98a5.318 5.318 0 0 1 1.74-1.282 5.118 5.118 0 0 1 2.16-.46c.906 0 1.733.207 2.48.62a4.717 4.717 0 0 1 1.8 1.782l5.24-1.601c-.8-1.602-2.007-2.895-3.62-3.883zm-75.76 15.85c-.814.32-1.674.48-2.58.48-1.014 0-1.867-.3-2.56-.9-.694-.6-1.04-1.355-1.04-2.261 0-.961.44-1.755 1.32-2.383.88-.627 2.013-.94 3.4-.94.693 0 1.413.074 2.16.22.746.147 1.44.34 2.08.58v2.402c0 .56-.294 1.068-.88 1.521-.454.535-1.087.96-1.9 1.281z"/></g></g></svg>