<!-- Generated by IcoMoon.io -->
<svg version="1.1" xmlns="http://www.w3.org/2000/svg" width="1024" height="1024" viewBox="0 0 1024 1024">
<title></title>
<g id="icomoon-ignore">
</g>
<path d="M461.372 678.498v29.646c-12.463-0.494-24.858-1.197-37.251-2.042l-18.731-1.409c-98.936-8.38-189.35-28.66-254.557-57.178-41.475-18.097-90.908-47.532-90.908-84.5 0-30.208 32.463-55.207 66.825-73.233v-66.755c-63.376 28.167-126.75 73.022-126.75 139.777 0 78.515 87.106 126.75 160.198 153.226l4.507 1.55c72.247 25.561 161.959 42.25 259.345 48.588 12.323 0.775 24.716 1.409 37.251 1.901v29.152l36.968-28.167 40.419-31.054-37.602-28.871z"></path>
<path d="M436.656 470.065c-19.235 19.23-31.133 45.799-31.133 75.146 0 22.44 6.956 43.255 18.829 60.407l-0.231-0.353c3.915 5.526 8.033 10.38 12.529 14.854l0.004 0.004c12.109 12.422 27.299 21.785 44.339 26.854l0.728 0.186c8.966 2.593 19.263 4.085 29.91 4.085 0.13 0 0.261 0 0.39 0h-0.021c0.122 0 0.265 0.001 0.407 0.001 58.608 0 106.118-47.511 106.118-106.118 0-29.318-11.889-55.859-31.109-75.064v0c-19.315-19.239-45.959-31.134-75.38-31.134s-56.065 11.895-75.385 31.137l0.003-0.003z"></path>
<path d="M384.055 667.231c-30.493-31.383-49.294-74.267-49.294-121.544 0-0.321 0.001-0.64 0.003-0.959v0.050c-0.001-0.245-0.001-0.533-0.001-0.823 0-24.481 5.184-47.753 14.514-68.775l-0.429 1.082c9.578-21.84 22.382-40.51 38.042-56.351l-0.018 0.018c15.826-15.528 34.499-28.221 55.153-37.214l1.181-0.458c20.368-9.166 44.153-14.505 69.185-14.505s48.816 5.34 70.276 14.942l-1.093-0.436c21.829 9.471 40.5 22.161 56.365 37.703l-0.031-0.031c6.768 6.799 12.988 14.159 18.579 21.997l0.363 0.536c7.085 9.784 13.47 20.918 18.63 32.71l0.453 1.16c8.901 19.941 14.085 43.211 14.085 67.692 0 0.29 0 0.579-0.001 0.867v-0.044c0.001 0.271 0.003 0.59 0.003 0.911 0 47.277-18.801 90.161-49.335 121.585l0.040-0.041c85.556-9.084 162.663-27.321 219.137-51.967l7.042-3.168v-209.208c-0.082-4.097-0.438-8.038-1.050-11.895l0.064 0.488c-1.207-7.663-3.521-14.556-6.798-20.869l0.179 0.378c-3.568-6.915-7.962-12.838-13.158-17.947l-0.010-0.009c-12.359-12.777-29.661-20.71-48.813-20.71-0.341 0-0.683 0.003-1.022 0.007h-85.716c-6.543-0.097-12.551-2.304-17.396-5.969l0.075 0.054c-5.065-3.366-8.92-8.198-10.993-13.887l-0.063-0.196-21.126-65.699c-2.499-5.78-6.408-10.547-11.305-14.014l-0.103-0.069c-4.629-3.59-10.502-5.778-16.885-5.844h-241.121c-6.533 0.101-12.537 2.279-17.402 5.901l0.079-0.057c-4.961 3.284-8.635 8.169-10.307 13.906l-0.044 0.177-22.111 65.699c-2.136 5.885-5.991 10.717-10.952 14.019l-0.104 0.064c-4.771 3.611-10.78 5.818-17.3 5.915h-85.086c-0.274-0.004-0.599-0.006-0.923-0.006-19.189 0-36.527 7.93-48.916 20.692l-0.016 0.018c-4.875 4.861-9.045 10.423-12.348 16.525l-0.186 0.375c-3.31 6.111-5.772 13.216-6.99 20.738l-0.051 0.388c-0.609 3.452-0.992 7.466-1.056 11.557l-0.001 0.063v209.137l7.042 3.168c56.403 24.858 133.509 42.884 219.067 52.179z"></path>
<path d="M897.321 423.027v66.544c34.364 18.026 66.825 43.025 66.825 73.233 0 37.18-49.292 66.614-90.908 84.5-65.206 28.167-155.621 48.799-254.557 57.178-18.942 1.62-38.166 2.746-57.46 3.451l38.729 29.716-39.504 30.279c112.245-3.943 216.883-21.548 298.849-50.559l4.437-1.55c73.093-26.547 160.268-74.713 160.268-153.226 0-66.614-62.952-111.329-126.679-139.566z"></path>
</svg>
