<!-- Generated by IcoMoon.io -->
<svg version="1.1" xmlns="http://www.w3.org/2000/svg" width="1024" height="1024" viewBox="0 0 1024 1024">
<title></title>
<g id="icomoon-ignore">
</g>
<path d="M369.778 85.333l-71.111 142.222h-199.111c-55.155 0-99.556 44.401-99.556 99.556v512c0 55.155 44.401 99.556 99.556 99.556h824.889c55.155 0 99.556-44.401 99.556-99.556v-512c0-55.155-44.401-99.556-99.556-99.556h-199.111l-71.111-142.222h-284.444zM512 327.111c140.88 0 256 115.12 256 256s-115.12 256-256 256c-140.877 0-256-115.12-256-256s115.123-256 256-256zM512 412.444c-94.757 0-170.667 75.906-170.667 170.667s75.91 170.667 170.667 170.667c94.762 0 170.667-75.906 170.667-170.667s-75.905-170.667-170.667-170.667z"></path>
</svg>
