<!-- Generated by IcoMoon.io -->
<svg version="1.1" xmlns="http://www.w3.org/2000/svg" width="1024" height="1024" viewBox="0 0 1024 1024">
<title></title>
<g id="icomoon-ignore">
</g>
<path d="M582.021 0c-243.623 0-441.803 198.18-441.803 441.803 0 101.404 34.363 194.814 92.008 269.429l-215.571 215.571c-22.161 22.161-22.161 58.205 0 80.506 11.080 11.080 25.667 16.691 40.254 16.691s29.172-5.61 40.254-16.691l215.571-215.571c74.615 57.645 168.025 92.008 269.429 92.008 243.623 0 441.803-198.18 441.803-441.803s-198.32-441.943-441.943-441.943zM582.021 769.86c-180.929 0-328.057-147.128-328.057-328.057s147.128-328.057 328.057-328.057 328.057 147.128 328.057 328.057-147.128 328.057-328.057 328.057z"></path>
</svg>
