<!-- Generated by IcoMoon.io -->
<svg version="1.1" xmlns="http://www.w3.org/2000/svg" width="819" height="1024" viewBox="0 0 819 1024">
<title></title>
<g id="icomoon-ignore">
</g>
<path fill="#000" d="M409.5 102.5c-225.793 0-409.5 183.707-409.5 409.5s183.707 409.5 409.5 409.5 409.5-183.707 409.5-409.5-183.707-409.5-409.5-409.5zM409.5 839.638c-180.651 0-327.638-146.979-327.638-327.638s146.988-327.638 327.638-327.638 327.638 146.988 327.638 327.638-146.988 327.638-327.638 327.638z"></path>
<path fill="#000" d="M449.785 500.175c0.328-2.092 0.646-4.184 0.646-6.367v-178.513c0-22.603-18.328-40.931-40.931-40.931s-40.931 18.328-40.931 40.931v178.513c0 3.484-0.436 43.105 12.416 54.629l126.659 113.543c7.813 7.013 17.582 10.451 27.305 10.451 11.224 0 22.412-4.593 30.498-13.607 15.090-16.836 13.68-42.704-3.157-57.795l-112.506-100.854z"></path>
</svg>
