<svg xmlns="http://www.w3.org/2000/svg" width="58" height="56" viewBox="0 0 58 56"><defs><linearGradient id="vuf5a" x1="10.02" x2="57.02" y1="22.96" y2="22.9" gradientUnits="userSpaceOnUse"><stop offset="0" stop-color="#5d91f1"/><stop offset="1" stop-color="#29bfb6"/></linearGradient></defs><g><g opacity=".36"><path fill="#65707d" d="M50.43 6.64C45.964 2.297 40.02-.096 33.687-.096c-6.33 0-12.275 2.393-16.741 6.738a22.629 22.629 0 0 0 0 32.58c4.466 4.345 10.413 6.738 16.743 6.738h.002c6.33 0 12.277-2.393 16.741-6.738 9.232-8.983 9.23-23.598-.002-32.58z"/><path fill="url(#vuf5a)" d="M50.43 6.64C45.964 2.297 40.02-.096 33.687-.096c-6.33 0-12.275 2.393-16.741 6.738a22.629 22.629 0 0 0 0 32.58c4.466 4.345 10.413 6.738 16.743 6.738h.002c6.33 0 12.277-2.393 16.741-6.738 9.232-8.983 9.23-23.598-.002-32.58z"/></g><g><path fill="#65707d" d="M40.432 49.221c-4.464 4.344-10.41 6.738-16.74 6.738h-.003c-6.33 0-12.277-2.394-16.743-6.738a22.628 22.628 0 0 1 0-32.58c4.466-4.346 10.41-6.74 16.741-6.74 6.333 0 12.277 2.394 16.743 6.74 9.232 8.982 9.234 23.598.002 32.58zm-1.434-31.186c-4.083-3.971-9.52-6.163-15.31-6.163-5.789 0-11.227 2.192-15.31 6.163a20.694 20.694 0 0 0 0 29.793c4.083 3.971 9.521 6.159 15.313 6.159 5.788 0 11.226-2.188 15.309-6.159a20.69 20.69 0 0 0-.002-29.793zm-.346 10.59c.247.743-.009 1.527-.648 1.999l-6.88 5.02 2.499 7.945a1.745 1.745 0 0 1-.275 1.595 1.898 1.898 0 0 1-1.506.743 1.86 1.86 0 0 1-1.045-.32l-7.108-4.76-7.106 4.76c-.31.21-.673.32-1.047.32-.588 0-1.15-.277-1.502-.74a1.75 1.75 0 0 1-.279-1.598l2.5-7.944-6.877-5.02c-.643-.472-.898-1.255-.653-1.998.245-.745.922-1.237 1.725-1.253l8.652-.171 2.836-7.855c.263-.731.95-1.208 1.751-1.208.8 0 1.486.475 1.751 1.208l2.836 7.855 8.648.17c.803.017 1.48.51 1.728 1.251zm-2.26.71l-8.858-.175a1.011 1.011 0 0 1-.936-.658l-2.909-8.056-2.909 8.056c-.14.387-.512.65-.936.658l-8.857.176 7.052 5.147a.972.972 0 0 1 .363 1.078l-2.565 8.154 7.278-4.88a1.04 1.04 0 0 1 1.148 0l7.38 4.946-2.666-8.22a.973.973 0 0 1 .362-1.078z"/></g></g></svg>