<svg xmlns="http://www.w3.org/2000/svg" width="41" height="59" viewBox="0 0 41 59"><defs><linearGradient id="7891a" x1="10.48" x2="40.48" y1="24.41" y2="24.48" gradientUnits="userSpaceOnUse"><stop offset="0" stop-color="#5d91f1"/><stop offset="1" stop-color="#29bfb6"/></linearGradient></defs><g><g opacity=".36"><path d="M25.524.48c-1.126 0-5.957 9.17-7.98 13.113-4.687 9.127-7.064 15.565-7.064 19.13 0 8.649 6.749 15.684 15.044 15.684 8.297 0 15.046-7.035 15.046-15.684C40.57 26.073 27.727.48 25.524.48z"/><path fill="url(#7891a)" d="M25.524.48c-1.126 0-5.957 9.17-7.98 13.113-4.687 9.127-7.064 15.565-7.064 19.13 0 8.649 6.749 15.684 15.044 15.684 8.297 0 15.046-7.035 15.046-15.684C40.57 26.073 27.727.48 25.524.48z"/></g><g><path fill="#65707d" d="M30.57 42.723c0 8.648-6.749 15.685-15.046 15.685C7.23 58.408.48 51.371.48 42.723c0-3.565 2.377-10.001 7.064-19.13 2.023-3.943 6.854-13.114 7.98-13.114 2.203 0 15.046 25.594 15.046 32.244zm-1.955 0c0-6.538-10.153-24.651-13.09-29.438-2.939 4.787-13.09 22.9-13.09 29.438 0 7.525 5.873 13.647 13.09 13.647 7.218 0 13.09-6.122 13.09-13.647zM13.7 51.783a.988.988 0 0 1-.949.772.992.992 0 0 1-.239-.031c-4.285-1.12-7.279-5.125-7.279-9.737 0-1.643.75-4.128 2.29-7.6.23-.51.808-.734 1.3-.495.49.235.702.841.476 1.351-1.744 3.928-2.111 5.835-2.111 6.744 0 3.677 2.386 6.87 5.802 7.762.523.137.84.69.71 1.234z"/></g></g></svg>