<svg xmlns="http://www.w3.org/2000/svg" width="50" height="58" viewBox="0 0 50 58"><defs><linearGradient id="kkiya" x1="10" x2="50" y1="24" y2="24" gradientUnits="userSpaceOnUse"><stop offset="0" stop-color="#5d91f1"/><stop offset="1" stop-color="#29bfb6"/></linearGradient></defs><g><g><path fill="#65707d" d="M40 29.2h-.053v4.158c0 18.832-18.554 24.331-19.343 24.556a2.399 2.399 0 0 1-1.25.003c-.807-.231-19.356-5.78-19.356-24.56v-13.06c0-1.557 1.553-2.747 3.05-2.305.502.173 1.302.363 2.47.363 1.74-.002 7.78-.537 12.503-7.42.86-1.246 3.044-1.246 3.903 0 4.16 6.061 9.055 7.334 12.43 7.334 1.54 0 2.547-.28 2.557-.282 1.522-.435 3.036.765 3.036 2.31v6.886H40zM19.886 55.956l.085.009a.365.365 0 0 0 .102-.014c.718-.203 17.866-5.283 17.866-22.594v-4.159H2.006v4.159c0 17.26 17.15 22.391 17.88 22.6zm18.053-35.66a.375.375 0 0 0-.37-.37c-.075.006-1.293.375-3.215.375-3.854 0-9.423-1.423-14.08-8.208-.105-.15-.5-.15-.601 0-5.282 7.693-12.168 8.292-14.154 8.293-1.142 0-2.206-.159-3.08-.457h-.011c-.237 0-.422.14-.422.367v6.886H37.94z"/></g><g opacity=".36"><path fill="#65707d" d="M50 19.198h-.053v4.161c0 18.833-18.554 24.331-19.343 24.554a2.404 2.404 0 0 1-1.25.004c-.807-.231-19.356-5.78-19.356-24.558V10.295c0-1.556 1.553-2.744 3.05-2.304.502.173 1.302.364 2.47.364 1.74-.002 7.78-.537 12.503-7.42.86-1.246 3.044-1.246 3.903 0 4.16 6.062 9.055 7.335 12.43 7.335 1.54 0 2.548-.281 2.557-.283 1.522-.435 3.036.765 3.036 2.308v6.889H50z"/><path fill="url(#kkiya)" d="M50 19.198h-.053v4.161c0 18.833-18.554 24.331-19.343 24.554a2.404 2.404 0 0 1-1.25.004c-.807-.231-19.356-5.78-19.356-24.558V10.295c0-1.556 1.553-2.744 3.05-2.304.502.173 1.302.364 2.47.364 1.74-.002 7.78-.537 12.503-7.42.86-1.246 3.044-1.246 3.903 0 4.16 6.062 9.055 7.335 12.43 7.335 1.54 0 2.548-.281 2.557-.283 1.522-.435 3.036.765 3.036 2.308v6.889H50z"/></g></g></svg>