<svg xmlns="http://www.w3.org/2000/svg" width="49" height="59" viewBox="0 0 49 59"><defs><linearGradient id="32yia" x1="10.83" x2="47.83" y1="24.81" y2="24.86" gradientUnits="userSpaceOnUse"><stop offset="0" stop-color="#5d91f1"/><stop offset="1" stop-color="#29bfb6"/></linearGradient></defs><g><g opacity=".36"><path fill="#65707d" d="M40.82 41.085l3.64 6.202a1.013 1.013 0 0 1-.877 1.525c-.349 0-.688-.18-.878-.501l-3.55-6.05a18.01 18.01 0 0 1-9.638 2.8 18.01 18.01 0 0 1-9.64-2.801l-3.55 6.05a1.017 1.017 0 0 1-1.391.364 1.013 1.013 0 0 1-.364-1.387l3.64-6.204c-4.135-3.31-6.793-8.382-6.793-14.068 0-9.95 8.119-18.044 18.098-18.044 9.978 0 18.097 8.094 18.097 18.044 0 5.686-2.659 10.76-6.795 14.07zM11.85 12.188a7.484 7.484 0 0 1-.756-5.728 7.496 7.496 0 0 1 3.527-4.583 7.578 7.578 0 0 1 3.78-1.012c2.699 0 5.213 1.446 6.563 3.775a1.01 1.01 0 0 1-.373 1.384l-11.353 6.535a1.022 1.022 0 0 1-.77.102 1.02 1.02 0 0 1-.618-.473zm22.163-6.78c-.07-.26-.034-.535.101-.768A7.603 7.603 0 0 1 40.677.865c1.322 0 2.63.35 3.78 1.012a7.496 7.496 0 0 1 3.527 4.583 7.484 7.484 0 0 1-.756 5.728 1.02 1.02 0 0 1-1.388.37L34.486 6.025a1.008 1.008 0 0 1-.473-.616z"/><path fill="url(#32yia)" d="M40.82 41.085l3.64 6.202a1.013 1.013 0 0 1-.877 1.525c-.349 0-.688-.18-.878-.501l-3.55-6.05a18.01 18.01 0 0 1-9.638 2.8 18.01 18.01 0 0 1-9.64-2.801l-3.55 6.05a1.017 1.017 0 0 1-1.391.364 1.013 1.013 0 0 1-.364-1.387l3.64-6.204c-4.135-3.31-6.793-8.382-6.793-14.068 0-9.95 8.119-18.044 18.098-18.044 9.978 0 18.097 8.094 18.097 18.044 0 5.686-2.659 10.76-6.795 14.07zM11.85 12.188a7.484 7.484 0 0 1-.756-5.728 7.496 7.496 0 0 1 3.527-4.583 7.578 7.578 0 0 1 3.78-1.012c2.699 0 5.213 1.446 6.563 3.775a1.01 1.01 0 0 1-.373 1.384l-11.353 6.535a1.022 1.022 0 0 1-.77.102 1.02 1.02 0 0 1-.618-.473zm22.163-6.78c-.07-.26-.034-.535.101-.768A7.603 7.603 0 0 1 40.677.865c1.322 0 2.63.35 3.78 1.012a7.496 7.496 0 0 1 3.527 4.583 7.484 7.484 0 0 1-.756 5.728 1.02 1.02 0 0 1-1.388.37L34.486 6.025a1.008 1.008 0 0 1-.473-.616z"/></g><g><path fill="#65707d" d="M21.561 24.707v13.196c0 .328-.16.637-.43.827l-8.134 5.727a1.018 1.018 0 0 1-1.417-.243 1.014 1.014 0 0 1 .244-1.414l7.705-5.423v-12.67c0-.561.455-1.014 1.016-1.014.562 0 1.016.453 1.016 1.014zm9.258 26.378l3.64 6.202a1.013 1.013 0 0 1-.876 1.525c-.349 0-.688-.179-.878-.502l-3.55-6.05a18.008 18.008 0 0 1-9.638 2.8 18.002 18.002 0 0 1-9.64-2.8l-3.55 6.05a1.016 1.016 0 0 1-1.755-1.023l3.64-6.203c-4.135-3.31-6.793-8.383-6.793-14.068 0-9.95 8.119-18.045 18.098-18.045 9.978 0 18.097 8.095 18.097 18.045 0 5.686-2.659 10.76-6.795 14.07zm4.762-14.07c0-8.832-7.206-16.019-16.064-16.019-8.859 0-16.065 7.187-16.065 16.02 0 8.832 7.206 16.017 16.065 16.017 8.858 0 16.064-7.185 16.064-16.017zM1.85 22.19a7.486 7.486 0 0 1-.756-5.73 7.497 7.497 0 0 1 3.527-4.581 7.578 7.578 0 0 1 3.78-1.013 7.6 7.6 0 0 1 6.563 3.776 1.01 1.01 0 0 1-.373 1.383L3.238 22.56a1.03 1.03 0 0 1-.77.102 1.022 1.022 0 0 1-.618-.473zm1.333-1.936l9.43-5.43a5.567 5.567 0 0 0-4.212-1.932c-.967 0-1.921.256-2.764.74a5.485 5.485 0 0 0-2.58 3.355 5.464 5.464 0 0 0 .126 3.267zm20.83-4.844c-.07-.26-.034-.537.101-.768a7.6 7.6 0 0 1 6.563-3.776c1.322 0 2.63.35 3.78 1.013a7.497 7.497 0 0 1 3.527 4.582 7.486 7.486 0 0 1-.756 5.729 1.022 1.022 0 0 1-.88.507 1.03 1.03 0 0 1-.508-.136l-11.354-6.536a1.015 1.015 0 0 1-.473-.615zm2.452-.586l9.43 5.43a5.466 5.466 0 0 0 .126-3.267 5.486 5.486 0 0 0-2.58-3.354c-2.265-1.303-5.318-.738-6.976 1.191z"/></g></g></svg>