<svg xmlns="http://www.w3.org/2000/svg" width="66" height="44" viewBox="0 0 66 44"><defs><linearGradient id="syrwa" x1="14" x2="66" y1="17" y2="16.99" gradientUnits="userSpaceOnUse"><stop offset="0" stop-color="#5d91f1"/><stop offset="1" stop-color="#29bfb6"/></linearGradient></defs><g><g opacity=".36"><path fill="#65707d" d="M64.826 29.648h-3.632c-.587 2.484-2.857 4.348-5.577 4.348-2.707 0-4.97-1.849-5.569-4.318h-19.4c-.598 2.47-2.86 4.318-5.567 4.318-2.761 0-5.072-1.917-5.614-4.46h-2.342c-.645 0-1.168-.51-1.168-1.14v-3.312h-.25c-.647 0-1.707-.455-1.707-1.086v-23c0-.632 1.118-1.013 1.763-1.013h39.854c.464 0 .883.268 1.07.684l3.843 8.563 3.93 2.614a3.396 3.396 0 0 1 1.534 2.83v13.832c0 .63-.523 1.14-1.168 1.14z"/><path fill="url(#syrwa)" d="M64.826 29.648h-3.632c-.587 2.484-2.857 4.348-5.577 4.348-2.707 0-4.97-1.849-5.569-4.318h-19.4c-.598 2.47-2.86 4.318-5.567 4.318-2.761 0-5.072-1.917-5.614-4.46h-2.342c-.645 0-1.168-.51-1.168-1.14v-3.312h-.25c-.647 0-1.707-.455-1.707-1.086v-23c0-.632 1.118-1.013 1.763-1.013h39.854c.464 0 .883.268 1.07.684l3.843 8.563 3.93 2.614a3.396 3.396 0 0 1 1.534 2.83v13.832c0 .63-.523 1.14-1.168 1.14z"/></g><g><path fill="#65707d" d="M55.994 24.675v13.833c0 .632-.523 1.141-1.168 1.141h-3.632c-.587 2.484-2.857 4.347-5.577 4.347-2.707 0-4.97-1.849-5.569-4.317h-19.4c-.598 2.468-2.86 4.317-5.567 4.317-2.761 0-5.072-1.917-5.614-4.46H7.125c-.645 0-1.168-.51-1.168-1.14v-3.312h-.25c-.647 0-1.17-.51-1.17-1.14v-4.452c0-.63.523-1.14 1.17-1.14.645 0 1.167.51 1.167 1.14v3.31h.212c.013 0 .025-.007.04-.007h30.177V12.267H6.931v3.485c0 .63-.522 1.141-1.168 1.141-.645 0-1.168-.51-1.168-1.141v-4.624c0-.632.523-1.142 1.168-1.142h39.854c.464 0 .883.268 1.07.683l3.843 8.564 3.93 2.613a3.398 3.398 0 0 1 1.534 2.83zm-16.354 8.12h14.018v-8.12c0-.377-.192-.728-.511-.942l-4.21-2.797a1.15 1.15 0 0 1-.413-.488l-3.67-8.181H39.64zm1.383 2.282H19.674a5.48 5.48 0 0 1 1.037 2.32h19.274c.16-.86.524-1.644 1.038-2.32zm-32.73 2.178h1.173a5.488 5.488 0 0 1 1.02-2.178H8.293zm10.185 1.14c0-1.83-1.524-3.318-3.397-3.318-1.875 0-3.4 1.487-3.4 3.318 0 1.83 1.525 3.319 3.4 3.319 1.873 0 3.397-1.49 3.397-3.319zm30.536 0c0-1.83-1.524-3.318-3.397-3.318-1.875 0-3.4 1.487-3.4 3.318 0 1.83 1.525 3.319 3.4 3.319 1.873 0 3.397-1.49 3.397-3.319zm4.644-1.028v-2.29H50.21a5.485 5.485 0 0 1 1.035 2.29zM8.177 25.987H3.504c-.645 0-1.168-.51-1.168-1.139 0-.632.523-1.142 1.168-1.142h4.673c.646 0 1.168.51 1.168 1.142 0 .63-.522 1.14-1.168 1.14zm2.336-4.562H1.168C.523 21.425 0 20.914 0 20.284c0-.631.523-1.14 1.168-1.14h9.345c.646 0 1.169.509 1.169 1.14 0 .63-.523 1.14-1.169 1.14z"/></g></g></svg>