<!-- Generated by IcoMoon.io -->
<svg version="1.1" xmlns="http://www.w3.org/2000/svg" width="1024" height="1024" viewBox="0 0 1024 1024">
<title></title>
<g id="icomoon-ignore">
</g>
<path d="M667.136 997.973l-430.251-427.691c-15.223-15.109-24.646-36.044-24.646-59.179s9.423-44.069 24.641-59.174l0.005-0.005 430.251-427.691c15.266-15.159 36.299-24.528 59.52-24.528s44.254 9.369 59.525 24.533l-0.005-0.005c15.161 15.138 24.539 36.063 24.539 59.179s-9.379 44.041-24.538 59.178l-0.001 0.001-370.859 368.555 370.859 368.469c15.161 15.138 24.539 36.063 24.539 59.179s-9.379 44.041-24.538 59.178l-0.001 0.001c-15.266 15.159-36.299 24.528-59.52 24.528s-44.254-9.369-59.525-24.533l0.005 0.005z"></path>
</svg>
