<!-- Generated by IcoMoon.io -->
<svg version="1.1" xmlns="http://www.w3.org/2000/svg" width="1024" height="1024" viewBox="0 0 1024 1024">
<title></title>
<g id="icomoon-ignore">
</g>
<path d="M1001.691 681.838l-439.735-440.174c-12.967-13.013-30.906-21.064-50.725-21.064s-37.757 8.052-50.723 21.062l-439.737 440.176c-12.452 12.899-20.124 30.483-20.124 49.858 0 39.669 32.158 71.826 71.826 71.826 19.321 0 36.861-7.629 49.77-20.039l-0.024 0.023 389.047-389.559 388.974 389.413c12.802 11.989 30.064 19.353 49.046 19.353 39.669 0 71.826-32.158 71.826-71.826 0-19.018-7.392-36.31-19.459-49.16l0.035 0.038z"></path>
</svg>
