<!-- Generated by IcoMoon.io -->
<svg version="1.1" xmlns="http://www.w3.org/2000/svg" width="819" height="1024" viewBox="0 0 819 1024">
<title></title>
<g id="icomoon-ignore">
</g>
<path fill="#000" d="M216.629 1012.258c3.175-2.958 313.822-300.419 181.703-779.469-0.899-3.276 0.99-6.679 4.267-7.6v0c5.279-1.49 10.751 1.615 12.186 6.907 132.267 486.617-183.933 788.913-187.188 791.904l-10.968-11.742z"></path>
<path fill="#000" d="M557.018 736.733c-42.542 132.256-166.639 100.557-166.639 100.557 35.328-129.514 166.639-100.557 166.639-100.557z"></path>
<path fill="#000" d="M445.619 681.529c157.617 17.214 160.336-126.782 160.336-126.782-151.29-2.753-160.336 126.782-160.336 126.782z"></path>
<path fill="#000" d="M606.649 351.142c-16.554 181.749-140.971 162.508-140.971 162.508-10.16-169.518 140.971-162.508 140.971-162.508z"></path>
<path fill="#000" d="M523.056 90.579c82.432 174.786-57.868 236.35-57.868 236.35-64.217-153.918 57.868-236.35 57.868-236.35z"></path>
<path fill="#000" d="M345.654 0c135.828 73.353 55.274 208.76 55.274 208.76-145.851-125.417-55.274-208.76-55.274-208.76z"></path>
<path fill="#000" d="M215.879 653.449c150.801 34.156 123.779 164.625 123.779 164.625-160.051-30.174-123.779-164.647-123.779-164.625z"></path>
<path fill="#000" d="M250.456 480.915c145.806 43.463 135.85 178.415 135.85 178.415-144.907 3.629-135.85-178.415-135.85-178.415z"></path>
<path fill="#000" d="M256.793 339.65c152.143 6.315 148.525 162.099 148.525 162.099-97.826 16.293-148.525-162.099-148.525-162.099z"></path>
<path fill="#000" d="M256.793 181.135c138.558 22.653 134.019 144.122 134.019 144.122-132.232-8.897-134.019-144.122-134.019-144.122z"></path>
</svg>
