<!-- Generated by IcoMoon.io -->
<svg version="1.1" xmlns="http://www.w3.org/2000/svg" width="1024" height="1024" viewBox="0 0 1024 1024">
<title></title>
<g id="icomoon-ignore">
</g>
<path d="M880.64 204.8h-114.688c20.48-20.48 32.768-49.152 32.768-81.92 0-69.632-53.248-122.88-122.88-122.88-40.96 0-114.688 36.864-163.84 86.016-49.152-49.152-122.88-86.016-163.84-86.016-69.632 0-122.88 53.248-122.88 122.88 0 32.768 12.288 61.44 32.768 81.92h-114.688c-24.576 0-40.96 16.384-40.96 40.96v114.688c0 4.096 4.096 8.192 8.192 8.192h344.064c8.192 0 16.384-8.192 16.384-16.384v-131.072c0-8.192 8.192-16.384 16.384-16.384h49.152c8.192 0 16.384 8.192 16.384 16.384v131.072c0 8.192 8.192 16.384 16.384 16.384h344.064c4.096 0 8.192-4.096 8.192-8.192v-114.688c0-24.576-16.384-40.96-40.96-40.96zM348.16 163.84c-24.576 0-40.96-16.384-40.96-40.96s16.384-40.96 40.96-40.96c24.576 0 98.304 49.152 118.784 73.728-12.288 4.096-118.784 8.192-118.784 8.192zM675.84 163.84c0 0-106.496-4.096-118.784-8.192 24.576-28.672 94.208-73.728 118.784-73.728s40.96 16.384 40.96 40.96c0 24.576-16.384 40.96-40.96 40.96z"></path>
<path d="M454.656 450.56h-303.104c-4.096 0-8.192 4.096-8.192 8.192v319.488c0 24.576 16.384 40.96 40.96 40.96h270.336c8.192 0 16.384-8.192 16.384-16.384v-335.872c0-8.192-8.192-16.384-16.384-16.384z"></path>
<path d="M872.448 450.56h-303.104c-8.192 0-16.384 8.192-16.384 16.384v335.872c0 8.192 8.192 16.384 16.384 16.384h270.336c24.576 0 40.96-16.384 40.96-40.96v-319.488c0-4.096-4.096-8.192-8.192-8.192z"></path>
</svg>
