<!-- Generated by IcoMoon.io -->
<svg version="1.1" xmlns="http://www.w3.org/2000/svg" width="819" height="1024" viewBox="0 0 819 1024">
<title></title>
<g id="icomoon-ignore">
</g>
<path fill="#000" d="M409.5 989.91h-0.586c-8.929 0-17.432-3.831-23.36-10.515-34.758-39.239-133.627-147.59-173.206-177.335-140.906-105.871-212.349-226.482-212.349-358.48 0-225.789 183.699-409.49 409.5-409.49s409.5 183.699 409.5 409.5c0 132.073-70.762 252.322-210.338 357.384-40.069 30.161-140.576 139.129-175.93 178.57-5.918 6.598-14.367 10.366-23.232 10.366zM409.5 96.487c-191.394 0-347.093 155.709-347.093 347.093 0 112.885 61.311 213.828 187.435 308.588 39.665 29.799 119.941 116.599 159.509 160.297 40.090-43.783 121.771-131.221 161.797-161.35 123.058-92.632 185.455-196.098 185.455-307.524-0.010-191.394-155.709-347.103-347.103-347.103zM409.5 221.249c-122.771 0-222.288 99.529-222.288 222.299s99.529 222.299 222.288 222.299 222.288-99.529 222.288-222.299c0.010-122.771-99.517-222.299-222.288-222.299zM409.5 603.695c-88.374 0-160.020-71.646-160.020-160.020s71.646-160.020 160.020-160.020 160.020 71.646 160.020 160.020-71.646 160.020-160.020 160.020z"></path>
</svg>
