<!-- Generated by IcoMoon.io -->
<svg version="1.1" xmlns="http://www.w3.org/2000/svg" width="1024" height="1024" viewBox="0 0 1024 1024">
<title></title>
<g id="icomoon-ignore">
</g>
<path d="M6.083 1017.592c4.056 4.056 9.356 6.084 14.678 6.084 5.277 0 10.599-2.028 14.656-6.084l476.593-476.27 476.571 476.27c4.056 4.056 9.356 6.084 14.678 6.084 5.277 0 10.599-2.028 14.656-6.084 8.113-8.113 8.113-21.246 0-29.311l-476.571-476.27 476.571-476.292c8.113-8.087 8.113-21.224 0-29.311s-21.224-8.113-29.311 0l-476.616 476.27-476.593-476.27c-8.113-8.113-21.224-8.113-29.311 0s-8.113 21.246 0 29.311l476.571 476.292-476.571 476.27c-8.113 8.087-8.113 21.224 0 29.311z"></path>
</svg>
