<!-- Generated by IcoMoon.io -->
<svg version="1.1" xmlns="http://www.w3.org/2000/svg" width="1024" height="1024" viewBox="0 0 1024 1024">
<title></title>
<g id="icomoon-ignore">
</g>
<path d="M114.054 504.277h607.791v449.628h-607.791v-449.628z"></path>
<path d="M413.077 276.625c0-114.066-92.462-206.53-206.53-206.53s-206.546 92.462-206.546 206.53 92.479 206.53 206.546 206.53 206.53-92.462 206.53-206.53zM113.426 276.625c0-51.423 41.714-93.105 93.105-93.105 51.423 0 93.121 41.667 93.121 93.105s-41.698 93.105-93.121 93.105c-51.392 0-93.105-41.682-93.105-93.105z"></path>
<path d="M647.465 483.155c114.066 0 206.53-92.462 206.53-206.53s-92.479-206.53-206.53-206.53-206.546 92.462-206.546 206.53 92.479 206.53 206.546 206.53zM647.465 183.52c51.407 0 93.105 41.667 93.105 93.105s-41.698 93.105-93.105 93.105-93.121-41.682-93.121-93.105 41.714-93.105 93.121-93.105z"></path>
<path d="M760.679 729.083l263.322 207.864v-415.728z"></path>
</svg>
