<?xml version="1.0" standalone="no"?>
<!DOCTYPE svg PUBLIC "-//W3C//DTD SVG 20010904//EN"
 "http://www.w3.org/TR/2001/REC-SVG-20010904/DTD/svg10.dtd">
<svg version="1.0" xmlns="http://www.w3.org/2000/svg"
 width="3136.000000pt" height="3136.000000pt" viewBox="0 0 3136.000000 3136.000000"
 preserveAspectRatio="xMidYMid meet">
<metadata>
Created by potrace 1.11, written by Peter Selinger 2001-2013
</metadata>
<g transform="translate(0.000000,3136.000000) scale(0.100000,-0.100000)"
fill="#000000" stroke="none">
<path d="M2979 18876 c-2 -2 -41 -7 -85 -10 -45 -4 -93 -9 -105 -11 -13 -2
-46 -7 -74 -11 -27 -4 -57 -9 -65 -10 -8 -2 -31 -5 -50 -8 -19 -3 -50 -9 -68
-15 -18 -5 -35 -10 -37 -10 -30 1 -333 -86 -390 -111 -11 -5 -45 -19 -75 -30
-30 -12 -69 -27 -85 -35 -33 -15 -87 -38 -95 -40 -3 0 -21 -9 -40 -19 -148
-79 -208 -111 -227 -120 -13 -6 -23 -14 -23 -18 0 -5 -5 -8 -10 -8 -16 0 -260
-165 -317 -214 -7 -6 -18 -15 -25 -21 -11 -8 -110 -92 -155 -130 -56 -48 -217
-214 -275 -284 -40 -47 -75 -88 -78 -91 -33 -30 -240 -333 -240 -349 0 -5 -3
-11 -7 -13 -5 -1 -18 -21 -31 -43 -41 -72 -192 -386 -192 -399 0 -2 -8 -21
-17 -42 -9 -22 -17 -41 -18 -44 0 -3 -13 -43 -29 -90 -15 -47 -29 -89 -31 -95
-37 -126 -63 -229 -69 -275 -1 -8 -5 -26 -9 -40 -4 -14 -9 -41 -12 -60 -2 -19
-7 -48 -9 -65 -8 -49 -17 -116 -24 -180 -9 -84 -8 -547 1 -620 5 -33 10 -78
12 -99 6 -55 16 -120 20 -126 1 -3 6 -25 9 -50 3 -25 10 -60 15 -78 5 -18 10
-35 10 -37 -1 -27 75 -297 101 -360 4 -11 27 -69 51 -130 24 -60 77 -177 119
-260 65 -127 96 -181 170 -295 79 -122 210 -293 295 -385 17 -18 39 -43 51
-56 39 -45 229 -224 269 -254 22 -17 45 -35 50 -41 17 -19 185 -144 194 -144
4 0 16 -9 26 -20 10 -11 24 -20 32 -20 7 0 13 -4 13 -10 0 -5 7 -10 15 -10 8
0 15 -3 15 -8 0 -7 10 -13 66 -42 16 -8 31 -18 34 -21 12 -16 305 -159 415
-203 66 -27 129 -52 140 -57 33 -13 215 -67 285 -84 93 -22 99 -24 160 -35 30
-6 66 -13 80 -15 26 -6 71 -13 130 -19 19 -3 62 -8 95 -12 80 -11 520 -11 620
-1 119 12 196 23 240 32 6 2 48 10 95 19 47 9 119 25 160 37 41 11 80 21 85
22 6 2 16 6 22 10 7 5 13 6 13 2 0 -3 8 -1 18 4 11 6 30 12 43 15 13 2 48 13
76 25 29 11 53 19 53 16 0 -3 16 4 35 15 20 11 40 20 46 20 6 0 33 11 60 25
27 13 49 22 49 20 0 -7 262 129 345 180 205 124 460 320 589 451 104 106 193
206 271 304 33 41 63 76 68 78 4 2 7 8 7 13 0 7 36 59 78 114 4 6 25 39 47 75
21 36 41 67 44 70 3 3 15 22 25 43 11 20 22 37 25 37 3 0 20 -23 36 -52 73
-125 207 -319 287 -414 261 -310 592 -590 878 -745 25 -13 47 -27 50 -30 21
-25 486 -229 523 -229 8 0 17 -3 21 -7 3 -4 12 -8 19 -9 7 -1 41 -11 77 -23
68 -22 99 -30 137 -36 12 -2 37 -8 55 -14 18 -5 47 -12 63 -15 17 -3 41 -7 55
-10 33 -8 135 -24 200 -31 19 -2 64 -8 100 -12 134 -16 630 -7 724 13 11 3 37
7 56 9 19 3 44 6 55 9 11 2 58 11 105 20 47 9 119 25 160 37 41 11 80 21 85
22 6 2 16 6 22 10 7 5 13 6 13 3 0 -2 29 6 65 19 36 13 65 22 65 19 0 -3 10 1
23 8 12 6 27 13 32 14 52 9 407 177 502 237 24 15 46 27 49 27 4 0 29 16 55
35 27 19 51 35 54 35 3 0 11 4 18 10 41 34 109 80 116 80 5 0 11 3 13 8 2 4
50 45 108 91 132 106 360 335 465 466 44 55 83 101 88 103 4 2 7 8 7 13 0 7
41 67 78 114 5 6 37 58 73 117 35 59 67 108 70 108 3 0 18 -23 34 -52 15 -28
60 -98 99 -156 39 -58 76 -112 81 -121 6 -9 16 -20 23 -24 6 -4 12 -14 12 -22
0 -7 3 -15 8 -17 4 -1 25 -25 47 -53 22 -27 51 -63 65 -80 38 -46 360 -365
369 -365 4 0 20 -11 35 -25 68 -63 229 -177 382 -272 66 -41 324 -174 324
-168 0 3 10 -1 22 -9 79 -50 456 -173 648 -210 14 -3 35 -7 46 -10 46 -10 138
-24 204 -31 19 -2 64 -8 100 -12 131 -16 581 -9 705 12 17 2 48 7 70 9 22 3
40 5 40 6 0 1 11 3 25 5 61 7 245 50 364 86 72 22 136 41 141 42 98 27 465
194 545 248 14 9 68 43 120 75 86 53 312 217 350 254 9 8 36 32 60 53 110 94
267 258 368 382 28 35 89 116 102 135 8 12 20 28 25 34 6 7 15 19 20 28 6 9
26 40 46 70 88 128 267 472 281 538 2 8 6 17 9 20 8 6 108 299 114 332 3 13
12 48 20 78 8 30 17 66 19 80 3 14 9 45 15 70 5 25 13 65 16 90 4 24 8 47 10
50 2 3 6 39 10 79 4 41 9 84 11 94 4 23 17 253 15 277 -1 8 -1 26 0 40 1 32 1
26 -5 160 -7 130 -11 181 -22 254 -4 28 -8 62 -9 76 -2 14 -3 25 -5 25 -1 0
-4 14 -6 30 -4 30 -31 163 -40 198 -2 9 -6 27 -9 38 -2 12 -12 47 -21 78 -10
31 -18 58 -19 61 -13 61 -92 279 -106 294 -5 6 -9 17 -9 25 0 16 -128 280
-176 361 -69 118 -232 354 -288 417 -6 6 -20 23 -31 38 -27 36 -318 330 -375
379 -64 56 -221 174 -315 237 -130 88 -214 133 -530 285 -90 43 -446 154 -545
170 -19 3 -38 8 -41 9 -3 2 -28 7 -55 11 -27 3 -52 8 -55 10 -7 4 -55 11 -129
19 -19 2 -62 7 -95 11 -76 10 -517 11 -610 2 -108 -11 -231 -29 -350 -52 -57
-11 -212 -51 -300 -79 -55 -17 -104 -31 -110 -33 -61 -13 -452 -193 -555 -256
-378 -232 -646 -465 -900 -783 -39 -49 -79 -102 -88 -117 -9 -15 -20 -28 -24
-28 -4 0 -8 -6 -8 -12 0 -7 -11 -26 -25 -42 -13 -16 -27 -37 -30 -47 -4 -11
-10 -19 -15 -19 -5 0 -10 -6 -12 -12 -5 -20 -82 -148 -88 -148 -4 0 -13 12
-21 28 -39 77 -254 391 -288 422 -3 3 -24 28 -46 55 -22 28 -53 64 -70 81 -16
17 -63 65 -104 107 -40 42 -75 77 -77 77 -2 0 -29 25 -60 55 -31 30 -60 55
-63 55 -4 0 -14 8 -23 18 -20 20 -20 21 -123 99 -44 33 -100 73 -125 89 -25
16 -49 33 -55 37 -13 10 -65 43 -135 84 -62 37 -287 151 -340 172 -19 8 -53
22 -75 31 -66 29 -128 52 -154 57 -14 2 -29 7 -35 11 -6 4 -14 7 -18 8 -5 1
-9 2 -10 4 -2 1 -10 3 -18 5 -8 2 -55 16 -105 30 -49 14 -99 27 -110 30 -52
11 -74 15 -120 25 -113 22 -184 33 -212 33 -13 -1 -23 2 -23 6 0 15 -576 22
-700 8 -106 -12 -185 -23 -230 -32 -14 -3 -43 -8 -65 -11 -22 -4 -87 -18 -145
-33 l-105 -26 -1 -937 c0 -516 4 -938 8 -938 4 0 8 6 8 13 0 7 7 22 15 32 8
11 36 49 62 85 43 59 151 173 213 226 46 38 175 122 235 151 50 25 161 68 200
78 6 1 17 5 25 8 15 6 94 22 165 33 52 8 387 13 400 6 5 -3 25 -7 45 -9 19 -2
85 -17 145 -34 292 -82 587 -303 770 -575 22 -32 42 -61 45 -64 10 -10 104
-194 121 -237 5 -13 13 -33 19 -45 28 -66 78 -234 96 -323 4 -22 8 -42 9 -45
1 -3 5 -30 9 -60 5 -30 10 -64 12 -75 14 -74 19 -298 8 -435 -4 -52 -7 -105
-8 -117 -1 -13 -3 -23 -6 -23 -3 0 -5 -10 -6 -22 -1 -36 -18 -116 -50 -233 -3
-11 -6 -25 -8 -32 -1 -7 -5 -16 -9 -19 -4 -4 -7 -14 -7 -21 0 -8 -9 -35 -21
-61 -11 -26 -27 -63 -36 -82 -29 -69 -58 -125 -65 -128 -5 -2 -8 -9 -8 -16 0
-12 -107 -181 -131 -206 -8 -8 -26 -31 -40 -50 -48 -63 -149 -161 -254 -244
-160 -128 -431 -252 -615 -282 -14 -2 -34 -6 -46 -9 -103 -23 -387 -24 -499
-1 -101 21 -212 50 -250 67 -157 67 -210 96 -320 178 -89 66 -224 208 -280
294 -28 42 -52 77 -55 77 -3 0 -5 -126 -5 -281 1 -154 -3 -283 -8 -286 -11 -7
-726 -8 -733 -1 -3 3 -5 963 -5 2132 0 1169 -1 2126 -3 2126 -6 0 -132 -86
-208 -142 -219 -162 -468 -411 -633 -633 -33 -44 -63 -81 -67 -83 -5 -2 -8 -7
-8 -11 0 -6 -94 -156 -117 -186 -4 -6 -17 -27 -27 -48 -11 -20 -22 -37 -25
-37 -3 0 -19 23 -36 52 -77 133 -239 367 -279 403 -6 6 -24 28 -40 50 -33 46
-372 385 -385 385 -4 0 -20 11 -35 25 -76 71 -370 275 -395 275 -5 0 -11 3
-13 8 -1 4 -16 15 -33 25 -42 24 -273 139 -315 156 -19 8 -53 22 -75 32 -63
29 -340 118 -415 134 -8 2 -44 11 -80 20 -36 8 -81 18 -100 20 -19 3 -46 7
-60 10 -14 3 -41 7 -60 10 -19 2 -51 7 -70 10 -19 3 -57 8 -85 11 -55 7 -540
15 -546 10z m456 -1359 c22 -3 54 -8 70 -10 17 -3 50 -8 75 -12 216 -33 496
-151 645 -272 119 -97 283 -298 301 -369 3 -13 10 -24 14 -24 4 0 10 -8 13
-17 3 -10 21 -61 40 -114 19 -52 38 -113 42 -135 5 -21 10 -46 11 -54 2 -8 6
-31 9 -50 2 -19 7 -46 10 -59 11 -56 16 -281 18 -826 l2 -580 23 -47 c27 -54
53 -73 124 -92 l53 -13 0 -361 1 -361 -46 -10 c-133 -30 -401 -47 -460 -29
-14 4 -36 9 -50 11 -14 2 -38 9 -53 15 -15 7 -39 15 -52 18 -14 3 -25 10 -25
15 0 5 -7 9 -16 9 -23 0 -136 119 -161 170 -40 83 -62 181 -65 293 -1 44 -9
47 -34 10 -27 -43 -224 -234 -274 -268 -25 -16 -46 -33 -48 -37 -2 -5 -7 -8
-12 -8 -5 0 -32 -16 -62 -35 -29 -19 -62 -38 -73 -41 -11 -4 -28 -13 -37 -22
-10 -8 -18 -12 -18 -9 0 4 -15 -2 -32 -12 -25 -14 -141 -57 -178 -66 -3 -1
-12 -5 -20 -8 -8 -4 -26 -8 -40 -11 -14 -2 -32 -7 -40 -10 -8 -3 -31 -7 -50
-10 -19 -3 -46 -8 -59 -10 -49 -10 -169 -20 -246 -20 -82 0 -233 12 -244 18
-3 2 -23 7 -44 10 -57 9 -164 44 -235 77 -35 16 -65 29 -68 29 -3 0 -43 24
-89 54 -242 158 -401 392 -461 678 -2 13 -6 52 -9 88 -2 36 -5 67 -5 70 -4 13
6 195 10 195 1 0 3 11 6 25 2 14 7 36 11 50 3 14 7 27 8 30 41 166 185 376
345 505 36 29 165 108 228 139 49 25 196 83 232 91 8 2 40 11 70 19 53 15 149
35 200 42 14 1 52 6 85 10 133 17 431 9 602 -16 116 -17 341 -71 368 -88 28
-18 74 -29 78 -18 6 18 1 288 -7 321 -3 17 -8 41 -11 55 -8 46 -40 140 -47
140 -5 0 -8 7 -8 16 0 8 -14 36 -31 61 -130 188 -327 275 -629 277 -148 1
-225 -7 -340 -34 -47 -11 -94 -23 -105 -25 -21 -5 -89 -31 -117 -46 -10 -5
-23 -9 -29 -9 -16 0 -223 -102 -231 -114 -4 -6 -8 -8 -8 -4 0 4 -25 -8 -55
-27 -30 -19 -58 -35 -64 -35 -5 0 -11 -4 -13 -8 -1 -4 -24 -22 -50 -39 -34
-23 -49 -28 -56 -20 -5 7 -33 62 -62 122 -145 301 -190 396 -190 403 0 10 145
100 240 149 115 60 342 156 388 164 10 2 32 9 62 20 22 8 178 46 220 54 84 16
139 23 215 30 32 3 61 7 63 9 5 6 430 -1 477 -7z m11395 -1 c138 -19 268 -49
378 -87 80 -27 252 -105 262 -118 3 -3 22 -14 42 -25 20 -10 46 -27 57 -37 11
-11 23 -19 25 -19 6 0 13 -5 111 -87 72 -59 197 -185 204 -206 2 -6 9 -17 15
-23 27 -29 46 -56 99 -142 65 -105 69 -96 -53 -131 -41 -12 -82 -25 -90 -28
-8 -3 -19 -7 -25 -9 -26 -6 -189 -55 -260 -77 -153 -49 -280 -87 -300 -91 -11
-2 -27 -7 -36 -11 -11 -4 -24 7 -44 37 -34 53 -165 188 -182 188 -7 0 -13 3
-13 8 0 16 -187 107 -245 118 -11 2 -32 6 -47 10 -128 27 -264 20 -428 -21
-14 -4 -67 -26 -82 -35 -10 -6 -25 -10 -33 -10 -8 0 -15 -4 -15 -8 0 -5 -17
-16 -37 -26 -21 -10 -55 -32 -78 -48 -54 -42 -185 -180 -185 -195 0 -7 -4 -13
-8 -13 -20 0 -132 -248 -148 -325 -2 -11 -8 -42 -14 -70 -23 -116 -27 -374 -6
-443 3 -10 8 -33 11 -52 17 -100 125 -356 156 -368 5 -2 9 -9 9 -15 0 -27 144
-175 220 -227 57 -39 116 -71 125 -69 4 0 16 -6 28 -14 28 -18 184 -60 196
-52 5 3 12 2 15 -3 9 -15 213 -6 296 13 55 13 77 19 90 25 8 4 35 16 60 26
117 49 273 178 327 272 14 26 27 48 28 49 1 1 53 -13 116 -33 63 -19 122 -37
132 -39 9 -2 22 -7 27 -10 5 -3 18 -8 27 -10 10 -1 52 -13 93 -26 41 -13 78
-24 83 -25 4 -1 9 -3 12 -4 3 -1 8 -3 13 -4 4 -1 41 -12 82 -25 41 -13 82 -25
90 -26 8 -2 16 -4 18 -5 1 -2 5 -3 10 -4 4 -1 12 -4 17 -7 6 -4 34 -12 63 -19
28 -6 52 -13 52 -15 0 -24 -147 -265 -162 -265 -4 0 -8 -5 -8 -11 0 -17 -128
-151 -201 -210 -23 -19 -47 -39 -53 -44 -41 -38 -266 -171 -266 -158 0 4 -4 3
-8 -3 -7 -11 -140 -72 -171 -78 -9 -2 -23 -6 -31 -9 -8 -4 -49 -15 -90 -26
-171 -45 -329 -65 -520 -64 -186 0 -312 13 -465 48 -16 4 -37 8 -45 10 -8 2
-15 4 -15 5 0 1 -11 3 -25 6 -14 2 -34 8 -45 13 -11 5 -49 19 -85 31 -127 44
-372 182 -474 269 -118 99 -332 342 -354 401 -3 8 -8 17 -11 20 -45 39 -198
410 -214 517 -3 17 -7 36 -10 40 -3 5 -8 29 -11 53 -3 25 -8 56 -11 70 -10 56
-22 346 -15 370 1 3 3 25 5 50 7 111 35 266 62 335 8 22 14 40 13 40 -5 0 24
91 32 100 4 5 8 15 8 23 0 8 24 65 54 126 118 245 281 441 508 611 26 19 52
35 57 35 6 0 11 3 11 8 0 8 26 24 145 87 95 51 231 108 315 130 153 41 238 58
307 59 18 1 33 4 33 7 0 8 420 4 480 -5z"/>
<path d="M3167 15724 c-3 -3 -48 -7 -99 -9 -114 -4 -151 -10 -253 -42 -210
-66 -361 -200 -408 -362 -32 -106 -15 -252 40 -353 46 -84 149 -176 253 -226
131 -62 381 -65 588 -6 31 9 61 20 66 25 6 5 16 9 24 9 17 0 104 41 113 53 3
5 10 8 14 6 13 -4 139 98 208 169 105 110 110 127 112 376 1 234 1 236 -70
254 -22 6 -67 18 -100 27 -33 10 -68 19 -78 21 -10 2 -26 5 -35 8 -9 3 -28 7
-42 10 -14 2 -41 7 -60 10 -59 11 -112 17 -183 21 -37 2 -71 6 -76 9 -4 3 -11
3 -14 0z"/>
<path d="M29889 18593 c0 -10 -1 -267 -1 -571 l-1 -553 -166 1 c-91 0 -196 1
-233 0 l-68 0 0 -130 0 -130 63 -1 c34 0 139 0 233 0 l172 0 0 -1277 c0 -702
3 -1301 7 -1331 14 -114 66 -223 151 -311 30 -31 67 -63 82 -71 15 -8 29 -17
32 -20 10 -13 130 -61 185 -75 17 -4 37 -9 45 -11 31 -8 252 -10 293 -3 23 5
58 10 77 13 55 7 229 57 292 83 31 13 86 40 121 59 l64 35 -44 123 c-25 67
-46 124 -48 126 -2 2 -12 0 -22 -4 -10 -5 -21 -7 -25 -7 -5 1 -8 -3 -8 -8 0
-6 -4 -10 -10 -10 -5 0 -44 -16 -86 -36 -292 -136 -626 -91 -738 100 -49 84
-48 54 -48 1361 1 676 1 1238 1 1247 1 16 30 17 386 15 l385 -2 1 35 c3 109 1
221 -3 225 -3 3 -177 6 -386 6 l-382 1 -1 31 c0 18 -1 274 -1 570 l0 537 -159
0 c-144 0 -159 -2 -160 -17z"/>
<path d="M23807 17524 c-2 -2 -23 -6 -48 -8 -105 -11 -210 -36 -332 -78 -74
-25 -287 -128 -307 -148 -3 -3 -32 -23 -65 -45 -33 -21 -67 -46 -76 -55 -8 -8
-35 -31 -59 -50 -47 -38 -125 -118 -161 -165 -13 -16 -28 -34 -34 -40 -14 -13
-56 -70 -108 -148 -50 -74 -180 -336 -182 -367 -1 -3 -9 -28 -18 -56 -10 -28
-20 -59 -22 -70 -20 -83 -37 -165 -40 -194 -32 -266 -22 -516 27 -705 5 -22
11 -47 13 -55 2 -8 8 -26 13 -40 5 -14 9 -27 9 -30 -1 -9 36 -115 43 -125 4
-5 11 -21 15 -35 23 -80 130 -264 228 -395 53 -71 214 -239 276 -288 49 -39
178 -126 226 -151 28 -15 57 -31 65 -36 63 -36 268 -109 350 -125 147 -28 224
-37 308 -36 23 1 49 1 57 1 8 0 32 0 53 -1 37 -1 146 8 192 16 14 3 39 7 55
10 17 3 41 7 55 10 14 3 34 8 45 10 87 19 362 127 376 148 3 4 12 9 20 11 18
3 163 96 167 107 2 5 7 9 12 9 25 0 260 234 260 259 0 5 3 11 8 13 11 5 66 95
98 161 31 63 27 77 -24 77 -12 0 -30 4 -40 9 -18 10 -164 51 -180 51 -5 0 -22
-24 -37 -52 -59 -114 -166 -236 -292 -332 -49 -37 -298 -176 -298 -167 0 3
-14 -2 -75 -23 -56 -20 -166 -45 -234 -53 -66 -9 -281 -8 -326 1 -19 4 -46 9
-60 11 -72 9 -245 68 -322 109 -63 34 -152 87 -158 95 -3 3 -23 18 -45 33 -92
64 -232 215 -316 343 -54 82 -122 205 -112 205 3 0 -1 8 -9 18 -8 9 -18 26
-21 37 -3 11 -17 50 -31 88 -14 37 -25 71 -26 75 0 4 -5 24 -11 46 -14 50 -28
136 -35 212 l-6 61 236 -1 c130 -1 236 3 236 7 0 5 5 5 12 1 17 -10 228 -11
228 -1 0 4 8 4 18 -1 9 -4 170 -7 357 -5 187 2 346 3 353 3 6 0 59 0 117 0 58
0 113 0 123 0 9 0 173 -1 364 -3 192 -1 348 2 348 6 0 5 5 5 12 1 17 -10 228
-11 228 -1 0 4 8 4 18 0 14 -7 168 -9 256 -4 18 1 18 10 13 179 -6 187 -10
230 -27 302 -5 25 -12 56 -14 70 -17 93 -108 341 -152 411 -13 20 -21 39 -18
41 2 3 -2 11 -11 18 -8 7 -15 19 -15 26 0 8 -4 14 -10 14 -5 0 -10 5 -10 12 0
12 -105 161 -150 212 -103 120 -252 246 -391 333 -78 49 -243 128 -257 123 -1
0 -15 6 -30 14 -15 7 -62 24 -105 36 -86 24 -96 26 -159 35 -23 3 -59 8 -78
12 -38 6 -348 12 -353 7z m328 -269 c17 -4 37 -7 45 -7 37 -1 187 -44 265 -76
63 -27 204 -100 215 -113 3 -3 27 -20 54 -39 57 -38 205 -183 258 -250 57 -74
112 -161 149 -235 19 -38 39 -73 44 -77 6 -4 6 -8 2 -8 -5 0 -5 -6 0 -12 4 -7
8 -15 9 -18 1 -8 15 -43 25 -65 16 -37 52 -180 64 -260 21 -131 22 -154 6
-157 -9 -2 -599 -4 -1311 -4 l-1295 1 2 50 c4 84 16 154 53 295 24 96 114 310
132 318 5 2 8 8 8 14 0 12 74 125 116 178 44 55 225 230 238 230 3 0 27 15 53
34 145 104 370 185 558 203 33 3 61 6 63 8 5 5 218 -4 247 -10z"/>
<path d="M27818 17525 c-2 -2 -32 -6 -68 -10 -36 -4 -92 -13 -125 -21 -33 -8
-69 -17 -81 -19 -99 -22 -366 -132 -386 -160 -4 -5 -8 -6 -8 -2 0 4 -6 3 -12
-3 -19 -15 -119 -80 -124 -80 -3 0 -10 -5 -17 -10 -17 -15 -50 -41 -90 -73
-98 -78 -219 -213 -297 -332 -32 -49 -65 -98 -72 -109 -11 -15 -13 46 -13 369
0 213 -3 389 -7 392 -7 4 -105 5 -249 4 l-45 -1 0 -1662 1 -1663 154 -2 c85
-2 157 1 160 6 4 5 5 465 5 1023 -2 893 0 1020 14 1068 20 69 17 60 30 93 7
16 12 31 12 34 0 4 6 14 13 22 8 9 20 32 27 51 12 30 81 143 117 190 122 161
271 301 428 401 33 21 151 80 240 120 25 11 141 46 175 53 14 3 36 8 50 11 86
19 276 22 370 5 74 -13 152 -41 217 -78 63 -35 160 -133 205 -208 39 -64 103
-221 111 -272 3 -17 7 -34 10 -39 3 -4 8 -24 11 -43 3 -19 8 -46 10 -60 3 -14
8 -47 11 -75 4 -27 8 -63 11 -80 13 -103 16 -348 18 -1230 l1 -990 156 -3
c156 -2 157 -2 161 20 2 13 3 480 2 1038 -1 895 -5 1115 -19 1235 -2 17 -6 57
-10 90 -4 33 -9 63 -11 66 -2 4 -6 28 -9 53 -3 26 -10 58 -15 72 -6 13 -9 28
-9 32 1 4 0 10 -1 15 -3 8 -3 8 -14 57 -5 19 -12 41 -16 50 -5 8 -18 44 -30
80 -66 194 -190 361 -334 448 -64 39 -189 92 -218 92 -10 0 -27 4 -37 9 -9 5
-42 13 -72 16 -55 7 -326 15 -331 10z"/>
<path d="M19108 17470 l-46 -5 24 -60 c25 -61 30 -72 57 -135 8 -19 32 -75 52
-125 20 -49 42 -101 48 -115 6 -14 11 -27 12 -30 0 -3 11 -27 23 -54 12 -27
22 -51 22 -53 0 -3 6 -19 14 -36 21 -46 43 -101 42 -107 0 -3 7 -18 16 -35 17
-32 40 -84 44 -100 1 -5 26 -64 54 -130 28 -66 69 -163 90 -215 21 -52 46
-113 56 -135 10 -22 18 -42 19 -45 3 -10 19 -46 47 -110 16 -36 29 -66 28 -68
0 -1 7 -19 16 -40 8 -20 53 -129 100 -242 47 -113 89 -214 94 -225 19 -39 132
-310 134 -320 1 -5 10 -28 20 -50 10 -22 22 -49 26 -60 4 -11 15 -36 23 -55 8
-19 27 -64 41 -100 15 -36 31 -74 36 -85 5 -11 21 -49 36 -85 14 -36 33 -81
41 -100 29 -66 41 -95 78 -185 20 -49 42 -103 50 -120 7 -16 20 -47 29 -68
l15 -38 167 3 167 3 54 130 c29 72 60 144 68 162 8 17 15 34 15 38 0 3 11 30
23 58 13 29 32 72 42 97 27 65 55 132 65 155 5 11 21 49 36 85 14 36 32 79 39
95 25 61 84 203 120 290 21 50 43 104 51 120 17 40 191 456 218 525 13 30 30
71 38 90 9 19 25 58 37 87 11 28 26 64 33 80 6 15 12 30 13 33 4 11 27 66 40
95 7 16 46 108 85 204 40 96 76 181 80 190 5 9 24 54 43 101 42 103 224 543
242 585 7 17 20 47 29 68 17 42 24 38 -79 38 -25 0 -84 0 -133 0 l-87 -1 -18
-40 c-9 -22 -17 -46 -17 -53 0 -7 -6 -21 -13 -32 -7 -11 -35 -76 -62 -145 -27
-69 -54 -128 -60 -132 -5 -4 -6 -8 -1 -8 5 0 4 -6 -2 -12 -6 -7 -10 -15 -10
-18 -1 -8 -48 -127 -78 -195 -10 -22 -18 -42 -19 -45 -5 -16 -18 -47 -26 -62
-5 -10 -9 -25 -9 -33 0 -8 -4 -15 -8 -15 -5 0 -9 -6 -9 -12 0 -11 -84 -221
-113 -283 -5 -11 -19 -45 -31 -75 -21 -56 -31 -80 -68 -162 -11 -26 -21 -50
-21 -53 0 -5 -111 -277 -130 -320 -5 -11 -21 -49 -35 -85 -27 -69 -34 -84 -59
-142 -9 -20 -16 -39 -16 -42 0 -3 -12 -31 -26 -63 -15 -31 -27 -62 -28 -67 -1
-6 -12 -33 -24 -60 -12 -27 -22 -50 -22 -51 0 -1 -8 -20 -17 -41 -9 -22 -17
-41 -18 -44 -3 -9 -17 -45 -30 -75 -7 -16 -23 -55 -35 -85 -12 -30 -31 -74
-41 -97 -11 -24 -19 -49 -19 -56 0 -7 -4 -17 -8 -22 -5 -6 -42 -92 -82 -192
-41 -101 -76 -183 -79 -183 -4 0 -17 28 -30 63 -12 34 -31 81 -42 104 -10 24
-19 46 -19 49 0 3 -6 20 -14 37 -28 61 -91 212 -91 217 0 6 -20 54 -55 135
-10 22 -30 72 -45 110 -28 72 -44 109 -70 169 -8 19 -15 36 -15 39 0 2 -8 22
-17 43 -9 22 -17 41 -18 44 -1 3 -6 16 -12 30 -40 93 -87 216 -84 219 1 2 -1
7 -6 10 -5 3 -17 29 -27 56 -10 28 -27 68 -36 90 -10 22 -41 99 -70 170 -28
72 -58 144 -65 160 -8 17 -23 53 -33 80 -41 104 -154 381 -168 409 -8 16 -14
33 -14 38 0 4 -10 30 -21 56 -36 80 -46 104 -79 187 -18 44 -37 91 -43 105 -6
14 -11 27 -12 30 -1 3 -9 22 -18 44 -9 21 -17 41 -17 44 0 5 -63 158 -88 212
-9 19 -15 38 -14 43 1 4 -4 7 -10 7 -136 4 -242 4 -280 0z"/>
<path d="M8750 16803 c-73 -10 -189 -36 -220 -49 -97 -43 -199 -103 -238 -141
-10 -10 -36 -34 -58 -54 -36 -33 -98 -100 -134 -145 -33 -41 -93 -138 -124
-199 l-32 -64 1 -408 c1 -396 2 -409 23 -456 74 -163 247 -332 427 -416 28
-13 58 -27 67 -32 10 -5 22 -9 27 -9 5 0 22 -5 38 -12 15 -6 37 -12 48 -13 11
-1 36 -6 55 -10 39 -9 250 -14 250 -5 0 3 18 6 39 8 58 4 185 48 269 92 207
111 370 308 442 535 12 39 25 77 27 85 3 8 7 26 9 40 1 14 7 54 12 89 18 123
4 318 -33 456 -1 6 -6 25 -10 43 -4 18 -12 35 -16 38 -5 3 -9 13 -9 23 0 26
-71 161 -124 235 -91 128 -220 237 -353 298 -37 17 -72 33 -78 34 -5 1 -28 6
-50 12 -35 9 -79 16 -173 27 -12 1 -25 -2 -28 -7 -3 -5 -11 -5 -17 -1 -7 5
-23 7 -37 6z"/>
</g>
</svg>
