<?xml version="1.0" standalone="no"?>
<!DOCTYPE svg PUBLIC "-//W3C//DTD SVG 20010904//EN"
 "http://www.w3.org/TR/2001/REC-SVG-20010904/DTD/svg10.dtd">
<svg version="1.0" xmlns="http://www.w3.org/2000/svg"
 width="260.000000pt" height="260.000000pt" viewBox="0 0 260.000000 260.000000"
 preserveAspectRatio="xMidYMid meet">
<metadata>
Created by potrace 1.11, written by Peter Selinger 2001-2013
</metadata>
<g transform="translate(0.000000,260.000000) scale(0.100000,-0.100000)"
fill="#000000" stroke="none">
<path d="M1335 2420 l-610 -180 -246 0 c-234 0 -248 -1 -273 -21 l-26 -20 0
-195 c0 -194 0 -195 25 -219 15 -16 36 -25 55 -25 l30 0 0 -735 0 -735 -104 0
c-111 0 -161 -11 -176 -40 -6 -10 -10 -57 -10 -104 0 -137 -44 -126 490 -126
534 0 490 -11 490 126 0 47 -4 94 -10 104 -15 29 -65 40 -181 40 l-109 0 0
735 0 735 34 0 c19 0 45 9 60 21 23 18 26 27 26 84 l0 64 143 45 c78 25 315
99 527 166 212 66 393 123 403 126 16 5 17 -14 17 -309 l0 -315 -160 -121
c-88 -66 -167 -121 -175 -121 -8 0 -24 -9 -35 -20 -19 -19 -20 -33 -20 -255
l0 -236 25 -24 24 -25 369 0 c358 0 370 1 396 21 l26 20 0 243 c0 263 0 265
-57 278 -12 3 -89 57 -172 119 l-150 114 -1 327 0 326 35 21 c47 28 57 59 53
169 -3 104 -14 123 -72 121 -17 0 -305 -81 -641 -179z m697 -922 l109 -83
-111 -3 c-60 -1 -159 -1 -220 0 l-110 3 108 82 c59 45 109 82 111 83 3 0 53
-37 113 -82z"/>
<path d="M1215 718 c-11 -6 -23 -16 -27 -22 -4 -6 -8 -155 -8 -331 0 -274 2
-324 16 -343 15 -21 21 -22 183 -22 151 0 171 2 192 19 l24 19 3 294 c2 161 0
308 -3 326 -3 17 -16 41 -27 52 -20 18 -35 20 -177 20 -97 0 -164 -5 -176 -12z"/>
<path d="M1766 709 l-26 -20 0 -325 c0 -311 1 -325 20 -344 19 -19 33 -20 408
-20 335 0 391 2 410 16 22 15 22 16 22 344 l0 329 -26 20 c-26 20 -37 21 -404
21 -367 0 -378 -1 -404 -21z"/>
</g>
</svg>
